<svg viewBox="0 0 24 24" fill="none" xmlns="http://www.w3.org/2000/svg">
  <rect width="24" height="24" rx="6" fill="#007AFF"/>
  <path d="M11.86 0L11.66 0.2L11.63 0.17L11.66 0.2L11.46 0.44L11.39 0.44L11.42 0.51L11.12 0.88L10.98 0.95L11.01 0.98L10.95 1.09L9.86 2.44L9.79 2.51L9.76 2.48L9.76 2.58L9.38 3.06L9.28 3.16L9.25 3.12L9.28 3.16L9.15 3.36L8.77 3.84L8.71 3.9L8.67 3.87L8.71 3.94L7.99 4.85L7.89 4.96L7.86 4.92L7.89 4.99L7.79 5.13L7.31 5.74L7.21 5.84L7.18 5.8L7.21 5.87L7.11 6.01L5.92 7.54L5.85 7.6L5.82 7.57L5.85 7.6L5.72 7.81L5.62 7.91L5.58 7.88L5.58 7.98L5.28 8.38L5.04 8.66L5.01 8.62L5.04 8.69L4.84 8.96L3.24 11.03L3.14 11.13L3.1 11.1L3.14 11.17L2.56 11.92L2.46 12.02L2.43 11.98L2.46 12.05L1.48 13.31L1.37 13.41L1.34 13.37L1.37 13.44L1 13.88L1.03 13.92L2.46 13.75L4.06 13.65L5.89 13.44L6.3 13.48L6.26 13.54L6.23 13.51L6.26 13.61L6.19 13.71L6.16 13.68L6.16 13.88L5.82 14.63L3.04 21.59L2.8 22.3L2.46 23.08L2.29 23.66L2.12 23.93L2.15 24L2.43 23.73L3.1 22.85L3.24 22.71L3.27 22.74L3.24 22.68L5.58 19.69L5.68 19.59L5.72 19.62L5.68 19.55L6.57 18.4L11.46 12.08L11.69 11.81L11.73 11.85L11.73 11.75L12.44 10.83L12.81 10.39L12.88 10.42L12.81 10.35L13.08 10.05L12.92 10.01L7.99 10.49L7.72 10.46L10.95 2.31L11.08 2.04L11.12 2.1L11.08 1.97L11.79 0.14L11.9 0Z" fill="white"/>
</svg>
