<svg id="svg" version="1.1" xmlns="http://www.w3.org/2000/svg" xmlns:xlink="http://www.w3.org/1999/xlink" width="400" height="400" viewBox="0, 0, 400,400"><g id="svgg"><path id="path0" d="M252.171 25.957 C 247.536 32.911,239.166 45.413,233.571 53.739 C 227.977 62.066,223.220 69.162,223.000 69.508 C 222.780 69.854,222.388 70.421,222.128 70.768 C 221.869 71.116,218.352 76.350,214.313 82.400 C 207.042 93.292,190.285 118.260,178.634 135.560 C 175.315 140.489,172.420 144.804,172.200 145.150 C 171.980 145.496,170.883 147.134,169.761 148.790 C 168.640 150.445,164.046 157.290,159.553 164.000 C 155.060 170.710,147.337 182.203,142.392 189.541 C 137.446 196.878,132.950 203.588,132.400 204.450 C 131.850 205.313,125.590 214.654,118.490 225.209 C 107.220 241.961,105.699 244.400,106.520 244.400 C 107.037 244.400,109.517 244.045,112.030 243.611 C 114.544 243.177,117.860 242.627,119.400 242.389 C 120.940 242.151,123.100 241.791,124.200 241.589 C 125.300 241.387,126.740 241.144,127.400 241.050 C 128.060 240.955,132.920 240.130,138.200 239.216 C 149.098 237.329,151.075 236.998,155.000 236.405 C 156.540 236.173,158.070 235.900,158.400 235.800 C 158.730 235.700,160.260 235.427,161.800 235.195 C 165.846 234.583,168.155 234.201,176.000 232.842 C 179.850 232.175,184.710 231.349,186.800 231.007 C 188.890 230.665,191.644 230.182,192.921 229.933 C 194.355 229.654,195.384 229.624,195.615 229.855 C 195.924 230.164,194.239 235.177,192.005 240.600 C 191.823 241.040,190.921 243.380,190.000 245.800 C 189.079 248.220,188.180 250.560,188.002 251.000 C 187.433 252.412,183.717 262.087,182.395 265.600 C 181.692 267.470,180.134 271.520,178.935 274.600 C 177.735 277.680,176.418 281.100,176.008 282.200 C 174.653 285.832,173.126 289.781,172.605 291.000 C 172.322 291.660,171.728 293.190,171.284 294.400 C 170.841 295.610,169.545 299.030,168.405 302.000 C 167.266 304.970,165.921 308.480,165.417 309.800 C 164.912 311.120,164.035 313.370,163.466 314.800 C 162.898 316.230,161.973 318.660,161.412 320.200 C 160.851 321.740,160.214 323.405,159.996 323.900 C 159.335 325.403,158.933 326.433,157.386 330.600 C 156.569 332.800,155.674 335.140,155.397 335.800 C 155.120 336.460,154.672 337.630,154.400 338.400 C 154.128 339.170,153.680 340.340,153.404 341.000 C 153.128 341.660,152.054 344.450,151.016 347.200 C 148.950 352.675,147.371 356.740,146.589 358.600 C 146.312 359.260,145.634 361.060,145.083 362.600 C 144.532 364.140,143.861 365.940,143.591 366.600 C 143.321 367.260,142.967 368.160,142.804 368.600 C 142.641 369.040,142.320 369.850,142.090 370.400 C 141.861 370.950,140.925 373.380,140.010 375.800 C 139.095 378.220,138.187 380.560,137.993 381.000 C 137.000 383.249,136.217 386.569,136.916 385.567 C 137.405 384.866,147.198 371.935,152.794 364.600 C 154.473 362.400,158.975 356.460,162.799 351.400 C 166.623 346.340,170.926 340.670,172.361 338.800 C 173.795 336.930,177.077 332.610,179.653 329.200 C 188.552 317.419,191.602 313.398,192.100 312.790 C 192.375 312.454,195.300 308.584,198.600 304.190 C 201.900 299.795,204.701 296.110,204.826 296.000 C 204.950 295.890,206.666 293.640,208.639 291.000 C 210.612 288.360,213.940 283.950,216.035 281.200 C 218.130 278.450,222.973 272.060,226.799 267.000 C 230.624 261.940,235.127 256.000,236.805 253.800 C 241.733 247.340,248.293 238.678,253.618 231.600 C 256.348 227.970,258.681 224.910,258.800 224.800 C 258.920 224.690,261.125 221.810,263.700 218.400 C 266.275 214.990,271.111 208.600,274.447 204.200 C 277.783 199.800,283.784 191.880,287.782 186.600 C 306.398 162.015,307.702 160.304,308.300 159.671 C 309.528 158.374,308.011 158.240,303.200 159.221 C 302.210 159.423,297.980 160.127,293.800 160.786 C 289.620 161.445,285.165 162.167,283.900 162.392 C 282.635 162.616,280.565 162.972,279.300 163.182 C 278.035 163.392,275.380 163.834,273.400 164.165 C 271.420 164.496,268.540 164.961,267.000 165.199 C 265.460 165.436,263.210 165.803,262.000 166.013 C 260.790 166.223,258.090 166.675,256.000 167.019 C 253.910 167.362,250.580 167.913,248.600 168.244 C 243.764 169.051,241.175 169.464,237.600 169.997 C 235.950 170.243,233.700 170.612,232.600 170.817 C 229.367 171.419,215.343 173.712,208.000 174.840 C 206.570 175.060,204.632 175.410,203.694 175.620 C 199.832 176.481,199.380 176.177,200.469 173.456 C 200.922 172.325,201.812 169.960,202.447 168.200 C 203.082 166.440,203.771 164.640,203.979 164.200 C 204.186 163.760,205.015 161.600,205.821 159.400 C 207.288 155.393,208.987 150.900,209.601 149.400 C 209.781 148.960,210.597 146.800,211.414 144.600 C 212.231 142.400,213.135 140.060,213.423 139.400 C 213.711 138.740,214.228 137.339,214.573 136.288 C 214.917 135.236,215.987 132.356,216.950 129.888 C 217.914 127.419,219.549 123.150,220.585 120.400 C 222.749 114.656,225.525 107.372,225.997 106.200 C 226.174 105.760,226.536 104.770,226.800 104.000 C 227.064 103.230,227.433 102.240,227.620 101.800 C 227.974 100.966,228.838 98.685,234.593 83.400 C 236.498 78.340,238.207 73.840,238.391 73.400 C 238.576 72.960,239.475 70.620,240.390 68.200 C 241.305 65.780,242.204 63.440,242.387 63.000 C 242.570 62.560,242.936 61.570,243.200 60.800 C 243.464 60.030,243.826 59.040,244.003 58.600 C 244.741 56.767,247.730 48.905,250.389 41.800 C 252.960 34.933,253.828 32.660,254.818 30.200 C 254.995 29.760,255.808 27.600,256.625 25.400 C 257.442 23.200,258.334 20.860,258.608 20.200 C 258.882 19.540,259.325 18.370,259.593 17.600 C 259.861 16.830,260.260 15.819,260.480 15.353 C 262.346 11.389,259.243 15.350,252.171 25.957 " stroke="none" fill="#fafbfb" fill-rule="evenodd"></path><path id="path1" d="M178.300 0.275 C 176.375 0.361,174.800 0.604,174.800 0.816 C 174.800 1.027,173.551 1.200,172.024 1.200 C 170.497 1.200,169.136 1.380,169.000 1.600 C 168.864 1.820,167.773 2.000,166.576 2.000 C 165.379 2.000,164.400 2.180,164.400 2.400 C 164.400 2.620,163.668 2.800,162.774 2.800 C 161.879 2.800,160.828 2.971,160.437 3.180 C 160.047 3.389,158.967 3.605,158.038 3.660 C 157.109 3.715,156.260 3.904,156.151 4.080 C 156.042 4.256,155.258 4.400,154.410 4.400 C 153.561 4.400,152.807 4.563,152.733 4.763 C 152.660 4.963,151.970 5.184,151.200 5.254 C 150.430 5.325,149.703 5.516,149.584 5.679 C 149.466 5.841,148.777 6.020,148.054 6.075 C 147.331 6.130,146.652 6.315,146.546 6.487 C 146.440 6.659,145.924 6.800,145.400 6.800 C 144.876 6.800,144.336 6.980,144.200 7.200 C 144.064 7.420,143.524 7.600,143.000 7.600 C 142.476 7.600,141.936 7.780,141.800 8.000 C 141.664 8.220,140.933 8.400,140.176 8.400 C 139.419 8.400,138.800 8.560,138.800 8.756 C 138.800 8.951,138.575 9.098,138.300 9.081 C 137.312 9.023,134.378 9.712,134.168 10.053 C 134.049 10.244,133.513 10.400,132.976 10.400 C 132.439 10.400,132.000 10.536,132.000 10.702 C 132.000 10.966,129.927 11.817,128.512 12.134 C 128.243 12.194,127.898 12.369,127.745 12.522 C 127.592 12.675,127.047 12.800,126.533 12.800 C 126.020 12.800,125.600 12.936,125.600 13.102 C 125.600 13.493,123.488 14.428,122.424 14.508 C 121.971 14.542,121.600 14.712,121.600 14.885 C 121.600 15.058,121.240 15.200,120.800 15.200 C 120.360 15.200,120.000 15.380,120.000 15.600 C 120.000 15.820,119.640 16.000,119.200 16.000 C 118.760 16.000,118.400 16.180,118.400 16.400 C 118.400 16.620,118.040 16.800,117.600 16.800 C 117.160 16.800,116.800 16.959,116.800 17.153 C 116.800 17.521,115.710 17.955,114.000 18.267 C 113.450 18.367,112.940 18.618,112.867 18.825 C 112.793 19.031,112.493 19.200,112.200 19.200 C 111.907 19.200,111.607 19.335,111.533 19.500 C 111.351 19.911,107.924 21.602,107.276 21.601 C 106.988 21.600,106.864 21.780,107.000 22.000 C 107.136 22.220,106.866 22.400,106.400 22.400 C 105.923 22.400,105.664 22.579,105.806 22.810 C 105.945 23.035,105.911 23.194,105.730 23.163 C 104.841 23.008,104.073 23.272,103.292 24.000 C 102.820 24.440,102.156 24.800,101.817 24.800 C 101.478 24.800,101.200 24.980,101.200 25.200 C 101.200 25.420,101.065 25.568,100.900 25.528 C 100.495 25.431,97.434 26.923,97.267 27.300 C 97.193 27.465,96.912 27.600,96.642 27.600 C 96.372 27.600,95.802 27.915,95.375 28.300 C 94.949 28.685,94.063 29.270,93.407 29.600 C 92.751 29.930,91.689 30.695,91.048 31.300 C 90.406 31.905,89.638 32.400,89.341 32.400 C 89.043 32.400,88.800 32.580,88.800 32.800 C 88.800 33.020,88.480 33.200,88.088 33.200 C 87.697 33.200,87.117 33.560,86.800 34.000 C 86.483 34.440,86.038 34.800,85.812 34.800 C 85.585 34.801,84.877 35.251,84.238 35.800 C 83.599 36.350,82.930 36.800,82.751 36.800 C 82.573 36.800,81.791 37.436,81.013 38.213 C 80.236 38.991,79.600 39.422,79.600 39.171 C 79.600 38.920,79.078 39.274,78.440 39.958 C 77.801 40.641,77.081 41.200,76.840 41.200 C 76.598 41.200,76.400 41.368,76.400 41.573 C 76.400 41.778,76.040 42.060,75.600 42.200 C 75.160 42.340,74.800 42.722,74.800 43.051 C 74.800 43.379,74.620 43.536,74.400 43.400 C 74.180 43.264,74.000 43.343,74.000 43.576 C 74.000 43.809,73.775 44.001,73.500 44.002 C 73.225 44.002,71.686 45.262,70.080 46.802 C 68.474 48.341,66.976 49.600,66.751 49.600 C 66.175 49.600,65.188 50.654,65.486 50.952 C 65.622 51.089,65.525 51.200,65.271 51.200 C 65.016 51.200,63.373 52.685,61.619 54.500 C 59.864 56.315,58.287 57.938,58.115 58.106 C 52.365 63.693,48.400 67.723,48.400 67.980 C 48.400 68.161,47.504 69.263,46.409 70.430 C 45.314 71.596,44.492 72.625,44.582 72.715 C 44.673 72.806,44.174 73.482,43.473 74.218 C 41.700 76.082,41.200 76.715,41.200 77.095 C 41.200 77.276,40.840 77.683,40.400 78.000 C 39.960 78.317,39.600 78.817,39.600 79.112 C 39.600 79.406,39.420 79.536,39.200 79.400 C 38.980 79.264,38.800 79.484,38.800 79.888 C 38.800 80.293,38.440 80.883,38.000 81.200 C 37.560 81.517,37.200 82.017,37.200 82.312 C 37.200 82.606,37.020 82.736,36.800 82.600 C 36.580 82.464,36.400 82.723,36.400 83.176 C 36.400 83.629,36.250 84.000,36.068 84.000 C 35.885 84.000,35.481 84.495,35.170 85.100 C 34.860 85.705,34.289 86.491,33.903 86.847 C 33.516 87.203,33.200 87.748,33.200 88.059 C 33.200 88.369,32.840 88.883,32.400 89.200 C 31.960 89.517,31.600 90.003,31.600 90.280 C 31.600 90.557,30.700 92.017,29.600 93.524 C 28.500 95.032,27.600 96.476,27.600 96.733 C 27.600 96.990,27.455 97.200,27.277 97.200 C 26.916 97.200,25.377 100.430,25.513 100.900 C 25.561 101.065,25.420 101.200,25.200 101.200 C 24.980 101.200,24.800 101.520,24.800 101.912 C 24.800 102.303,24.440 102.883,24.000 103.200 C 23.560 103.517,23.200 103.971,23.200 104.209 C 23.200 104.875,22.237 106.793,21.900 106.797 C 21.735 106.799,21.599 107.025,21.598 107.300 C 21.596 108.142,19.709 111.575,19.412 111.279 C 19.259 111.125,19.170 111.180,19.214 111.400 C 19.402 112.333,19.170 113.229,18.800 113.000 C 18.580 112.864,18.378 113.123,18.350 113.576 C 18.323 114.029,18.253 114.535,18.196 114.700 C 18.139 114.865,17.961 115.405,17.800 115.900 C 17.638 116.395,17.348 116.800,17.153 116.800 C 16.959 116.800,16.800 117.160,16.800 117.600 C 16.800 118.040,16.620 118.400,16.400 118.400 C 16.180 118.400,16.000 118.760,16.000 119.200 C 16.000 119.640,15.864 120.000,15.697 120.000 C 15.531 120.000,15.161 120.765,14.875 121.700 C 14.146 124.085,13.457 125.600,13.102 125.600 C 12.936 125.600,12.800 126.039,12.800 126.576 C 12.800 127.113,12.656 127.642,12.479 127.751 C 12.303 127.860,11.910 128.861,11.607 129.975 C 11.304 131.089,10.908 132.000,10.728 132.000 C 10.547 132.000,10.400 132.540,10.400 133.200 C 10.400 133.860,10.243 134.400,10.051 134.400 C 9.754 134.400,9.130 136.748,9.023 138.272 C 9.005 138.531,8.857 138.876,8.695 139.038 C 8.533 139.201,8.400 139.854,8.400 140.490 C 8.400 141.160,8.231 141.543,8.000 141.400 C 7.762 141.253,7.600 141.721,7.600 142.553 C 7.600 143.323,7.420 144.064,7.200 144.200 C 6.980 144.336,6.800 144.987,6.800 145.647 C 6.800 146.345,6.633 146.744,6.400 146.600 C 6.158 146.451,6.000 146.996,6.000 147.976 C 6.000 148.869,5.857 149.600,5.682 149.600 C 5.507 149.600,5.319 150.275,5.264 151.100 C 5.210 151.925,4.993 152.660,4.782 152.733 C 4.572 152.807,4.400 153.536,4.400 154.353 C 4.400 155.171,4.237 156.011,4.039 156.220 C 3.704 156.572,3.567 157.364,2.951 162.500 C 2.825 163.545,2.560 164.400,2.361 164.400 C 2.163 164.400,2.000 165.264,2.000 166.320 C 2.000 167.376,1.775 168.482,1.500 168.779 C 1.094 169.216,1.112 169.258,1.600 169.000 C 2.088 168.742,2.106 168.784,1.700 169.221 C 1.401 169.543,1.200 170.863,1.200 172.504 C 1.200 174.013,1.045 175.152,0.856 175.035 C 0.331 174.710,0.200 179.711,0.200 200.000 C 0.200 220.289,0.331 225.290,0.856 224.965 C 1.045 224.848,1.200 225.987,1.200 227.496 C 1.200 229.137,1.401 230.457,1.700 230.779 C 2.106 231.216,2.088 231.258,1.600 231.000 C 1.112 230.742,1.094 230.784,1.500 231.221 C 1.775 231.518,2.000 232.624,2.000 233.680 C 2.000 234.736,2.163 235.600,2.361 235.600 C 2.560 235.600,2.825 236.455,2.951 237.500 C 3.567 242.636,3.704 243.428,4.039 243.780 C 4.237 243.989,4.400 244.829,4.400 245.647 C 4.400 246.464,4.572 247.193,4.782 247.267 C 4.993 247.340,5.210 248.075,5.264 248.900 C 5.319 249.725,5.507 250.400,5.682 250.400 C 5.857 250.400,6.000 251.131,6.000 252.024 C 6.000 253.004,6.158 253.549,6.400 253.400 C 6.639 253.253,6.800 253.737,6.800 254.600 C 6.800 255.463,6.961 255.947,7.200 255.800 C 7.442 255.650,7.600 256.204,7.600 257.200 C 7.600 258.196,7.758 258.750,8.000 258.600 C 8.238 258.453,8.400 258.929,8.400 259.776 C 8.400 260.559,8.560 261.200,8.756 261.200 C 8.951 261.200,9.098 261.425,9.081 261.700 C 9.018 262.772,9.721 265.600,10.051 265.600 C 10.243 265.600,10.400 266.140,10.400 266.800 C 10.400 267.460,10.547 268.000,10.728 268.000 C 10.908 268.000,11.304 268.911,11.607 270.025 C 11.910 271.139,12.303 272.140,12.479 272.249 C 12.656 272.358,12.800 272.887,12.800 273.424 C 12.800 273.961,12.936 274.400,13.102 274.400 C 13.457 274.400,14.146 275.915,14.875 278.300 C 15.161 279.235,15.531 280.000,15.697 280.000 C 15.864 280.000,16.000 280.360,16.000 280.800 C 16.000 281.240,16.180 281.600,16.400 281.600 C 16.620 281.600,16.800 281.960,16.800 282.400 C 16.800 282.840,16.959 283.200,17.153 283.200 C 17.348 283.200,17.638 283.605,17.800 284.100 C 17.961 284.595,18.139 285.135,18.196 285.300 C 18.253 285.465,18.322 285.971,18.350 286.424 C 18.377 286.877,18.580 287.136,18.800 287.000 C 19.170 286.771,19.402 287.667,19.214 288.600 C 19.170 288.820,19.259 288.875,19.412 288.721 C 19.709 288.425,21.596 291.858,21.598 292.700 C 21.599 292.975,21.735 293.201,21.900 293.203 C 22.237 293.207,23.200 295.125,23.200 295.791 C 23.200 296.029,23.560 296.483,24.000 296.800 C 24.440 297.117,24.800 297.590,24.800 297.851 C 24.800 298.460,26.895 302.557,27.296 302.733 C 27.463 302.807,27.600 303.062,27.600 303.301 C 27.600 303.539,28.500 304.968,29.600 306.476 C 30.700 307.983,31.600 309.443,31.600 309.720 C 31.600 309.997,31.960 310.483,32.400 310.800 C 32.840 311.117,33.200 311.631,33.200 311.941 C 33.200 312.252,33.516 312.797,33.903 313.153 C 34.289 313.509,34.860 314.295,35.170 314.900 C 35.481 315.505,35.885 316.000,36.068 316.000 C 36.250 316.000,36.400 316.371,36.400 316.824 C 36.400 317.277,36.580 317.536,36.800 317.400 C 37.020 317.264,37.200 317.361,37.200 317.616 C 37.200 317.871,37.759 318.601,38.442 319.240 C 39.126 319.878,39.467 320.400,39.200 320.400 C 38.933 320.400,39.274 320.922,39.958 321.560 C 40.641 322.199,41.200 322.836,41.200 322.977 C 41.200 323.286,41.781 324.003,43.473 325.782 C 44.174 326.518,44.673 327.194,44.582 327.285 C 44.492 327.375,45.314 328.404,46.409 329.570 C 47.504 330.737,48.400 331.839,48.400 332.020 C 48.400 332.201,50.515 334.428,53.100 336.969 C 58.744 342.517,57.483 341.256,63.031 346.900 C 65.572 349.485,67.813 351.600,68.012 351.600 C 68.211 351.600,69.009 352.236,69.787 353.013 C 70.564 353.791,71.200 354.306,71.200 354.159 C 71.200 354.012,71.573 354.366,72.029 354.946 C 72.485 355.526,73.033 356.000,73.247 356.000 C 73.461 356.000,74.070 356.405,74.599 356.900 C 76.063 358.269,76.740 358.800,77.023 358.800 C 77.164 358.800,77.801 359.359,78.440 360.042 C 79.078 360.726,79.600 361.067,79.600 360.800 C 79.600 360.533,80.122 360.874,80.760 361.558 C 81.399 362.241,82.129 362.800,82.384 362.800 C 82.639 362.800,82.736 362.980,82.600 363.200 C 82.464 363.420,82.723 363.600,83.176 363.600 C 83.629 363.600,84.000 363.750,84.000 363.932 C 84.000 364.115,84.495 364.519,85.100 364.830 C 85.705 365.140,86.491 365.711,86.847 366.097 C 87.203 366.484,87.748 366.800,88.059 366.800 C 88.369 366.800,88.883 367.160,89.200 367.600 C 89.517 368.040,90.026 368.400,90.331 368.400 C 90.636 368.400,91.567 368.940,92.400 369.600 C 93.233 370.260,94.114 370.800,94.358 370.800 C 94.601 370.800,94.800 370.950,94.800 371.132 C 94.800 371.315,95.295 371.720,95.900 372.032 C 96.505 372.344,97.092 372.689,97.203 372.799 C 97.615 373.206,101.614 375.200,102.017 375.200 C 102.246 375.200,102.820 375.560,103.292 376.000 C 104.073 376.728,104.841 376.992,105.730 376.837 C 105.911 376.806,105.945 376.965,105.806 377.190 C 105.664 377.421,105.923 377.600,106.400 377.600 C 106.866 377.600,107.136 377.780,107.000 378.000 C 106.864 378.220,106.993 378.400,107.287 378.400 C 107.928 378.400,112.512 380.736,112.807 381.213 C 112.922 381.397,113.462 381.631,114.007 381.732 C 115.720 382.049,116.800 382.480,116.800 382.847 C 116.800 383.041,117.160 383.200,117.600 383.200 C 118.040 383.200,118.400 383.380,118.400 383.600 C 118.400 383.820,118.760 384.000,119.200 384.000 C 119.640 384.000,120.000 384.180,120.000 384.400 C 120.000 384.620,120.360 384.800,120.800 384.800 C 121.240 384.800,121.600 384.942,121.600 385.115 C 121.600 385.288,121.971 385.458,122.424 385.492 C 123.488 385.572,125.600 386.507,125.600 386.898 C 125.600 387.064,126.020 387.200,126.533 387.200 C 127.047 387.200,127.590 387.323,127.741 387.474 C 128.145 387.878,130.887 388.787,131.724 388.794 C 132.122 388.797,132.336 388.980,132.200 389.200 C 132.056 389.433,132.463 389.600,133.176 389.600 C 133.849 389.600,134.400 389.757,134.400 389.949 C 134.400 390.279,137.228 390.982,138.300 390.919 C 138.575 390.902,138.800 391.049,138.800 391.244 C 138.800 391.440,139.419 391.600,140.176 391.600 C 140.933 391.600,141.664 391.780,141.800 392.000 C 141.936 392.220,142.476 392.400,143.000 392.400 C 143.524 392.400,144.064 392.580,144.200 392.800 C 144.336 393.020,144.987 393.200,145.647 393.200 C 146.345 393.200,146.744 393.367,146.600 393.600 C 146.451 393.842,146.996 394.000,147.976 394.000 C 148.869 394.000,149.600 394.143,149.600 394.318 C 149.600 394.493,150.275 394.681,151.100 394.736 C 151.925 394.790,152.660 395.007,152.733 395.218 C 152.807 395.428,153.561 395.600,154.410 395.600 C 155.258 395.600,156.064 395.780,156.200 396.000 C 156.336 396.220,157.247 396.400,158.224 396.400 C 159.201 396.400,160.000 396.580,160.000 396.800 C 160.000 397.020,160.900 397.200,162.000 397.200 C 163.100 397.200,164.000 397.380,164.000 397.600 C 164.000 397.820,164.954 398.000,166.120 398.000 C 167.286 398.000,168.482 398.225,168.779 398.500 C 169.216 398.906,169.258 398.888,169.000 398.400 C 168.742 397.912,168.784 397.894,169.221 398.300 C 169.532 398.589,170.811 398.800,172.247 398.800 C 173.880 398.800,174.790 398.971,174.900 399.300 C 175.144 400.032,224.856 400.032,225.100 399.300 C 225.210 398.971,226.120 398.800,227.753 398.800 C 229.189 398.800,230.468 398.589,230.779 398.300 C 231.216 397.894,231.258 397.912,231.000 398.400 C 230.742 398.888,230.784 398.906,231.221 398.500 C 231.518 398.225,232.714 398.000,233.880 398.000 C 235.046 398.000,236.000 397.820,236.000 397.600 C 236.000 397.380,236.900 397.200,238.000 397.200 C 239.100 397.200,240.000 397.020,240.000 396.800 C 240.000 396.580,240.799 396.400,241.776 396.400 C 242.753 396.400,243.664 396.220,243.800 396.000 C 243.936 395.780,244.742 395.600,245.590 395.600 C 246.439 395.600,247.193 395.428,247.267 395.218 C 247.340 395.007,248.075 394.790,248.900 394.736 C 249.725 394.681,250.400 394.493,250.400 394.318 C 250.400 394.143,251.131 394.000,252.024 394.000 C 253.004 394.000,253.549 393.842,253.400 393.600 C 253.256 393.367,253.655 393.200,254.353 393.200 C 255.013 393.200,255.664 393.020,255.800 392.800 C 255.936 392.580,256.677 392.400,257.447 392.400 C 258.279 392.400,258.747 392.238,258.600 392.000 C 258.453 391.762,258.929 391.600,259.776 391.600 C 260.559 391.600,261.200 391.440,261.200 391.244 C 261.200 391.049,261.425 390.902,261.700 390.919 C 262.772 390.982,265.600 390.279,265.600 389.949 C 265.600 389.757,266.151 389.600,266.824 389.600 C 267.537 389.600,267.944 389.433,267.800 389.200 C 267.664 388.980,267.878 388.797,268.276 388.794 C 269.113 388.787,271.855 387.878,272.259 387.474 C 272.410 387.323,272.953 387.200,273.467 387.200 C 273.980 387.200,274.400 387.064,274.400 386.898 C 274.400 386.507,276.512 385.572,277.576 385.492 C 278.029 385.458,278.400 385.288,278.400 385.115 C 278.400 384.942,278.760 384.800,279.200 384.800 C 279.640 384.800,280.000 384.620,280.000 384.400 C 280.000 384.180,280.360 384.000,280.800 384.000 C 281.240 384.000,281.600 383.820,281.600 383.600 C 281.600 383.380,281.960 383.200,282.400 383.200 C 282.840 383.200,283.200 383.041,283.200 382.847 C 283.200 382.479,284.290 382.045,286.000 381.733 C 286.550 381.633,287.060 381.382,287.133 381.175 C 287.207 380.969,287.622 380.800,288.057 380.800 C 288.492 380.800,288.736 380.620,288.600 380.400 C 288.464 380.180,288.678 379.996,289.076 379.991 C 289.474 379.986,290.250 379.630,290.800 379.200 C 291.350 378.770,292.126 378.414,292.524 378.409 C 292.922 378.404,293.136 378.220,293.000 378.000 C 292.864 377.780,293.113 377.600,293.553 377.600 C 293.993 377.600,294.464 377.420,294.600 377.200 C 294.736 376.980,295.242 376.797,295.724 376.794 C 296.436 376.789,296.488 376.715,296.000 376.400 C 295.515 376.086,295.572 376.011,296.300 376.006 C 296.795 376.003,297.200 375.820,297.200 375.600 C 297.200 375.380,297.453 375.200,297.763 375.200 C 298.436 375.200,302.543 373.137,302.733 372.704 C 302.807 372.537,303.062 372.400,303.301 372.400 C 303.539 372.400,304.968 371.500,306.476 370.400 C 307.983 369.300,309.494 368.400,309.832 368.400 C 310.170 368.400,310.336 368.220,310.200 368.000 C 310.064 367.780,310.233 367.600,310.576 367.600 C 310.919 367.600,311.200 367.420,311.200 367.200 C 311.200 366.980,311.494 366.800,311.853 366.800 C 312.212 366.800,312.797 366.484,313.153 366.097 C 313.509 365.711,314.295 365.140,314.900 364.830 C 315.505 364.519,316.000 364.115,316.000 363.932 C 316.000 363.750,316.371 363.600,316.824 363.600 C 317.277 363.600,317.536 363.420,317.400 363.200 C 317.264 362.980,317.361 362.800,317.616 362.800 C 317.871 362.800,318.601 362.241,319.240 361.558 C 319.878 360.874,320.400 360.533,320.400 360.800 C 320.400 361.067,320.922 360.726,321.560 360.042 C 322.199 359.359,322.836 358.800,322.977 358.800 C 323.260 358.800,323.937 358.269,325.401 356.900 C 325.930 356.405,326.539 356.000,326.753 356.000 C 326.967 356.000,327.515 355.526,327.971 354.946 C 328.427 354.366,328.800 354.012,328.800 354.159 C 328.800 354.306,329.436 353.791,330.213 353.013 C 330.991 352.236,331.789 351.600,331.988 351.600 C 332.187 351.600,334.428 349.485,336.969 346.900 C 342.473 341.301,341.210 342.565,346.900 336.952 C 349.485 334.402,351.600 332.175,351.600 332.003 C 351.600 331.831,352.496 330.737,353.591 329.570 C 354.686 328.404,355.508 327.375,355.418 327.285 C 355.327 327.194,355.826 326.518,356.527 325.782 C 358.219 324.003,358.800 323.286,358.800 322.977 C 358.800 322.836,359.359 322.199,360.042 321.560 C 360.726 320.922,361.067 320.400,360.800 320.400 C 360.533 320.400,360.874 319.878,361.558 319.240 C 362.241 318.601,362.800 317.871,362.800 317.616 C 362.800 317.361,362.980 317.264,363.200 317.400 C 363.420 317.536,363.600 317.277,363.600 316.824 C 363.600 316.371,363.750 316.000,363.932 316.000 C 364.115 316.000,364.519 315.505,364.830 314.900 C 365.140 314.295,365.711 313.509,366.097 313.153 C 366.484 312.797,366.800 312.252,366.800 311.941 C 366.800 311.631,367.160 311.117,367.600 310.800 C 368.040 310.483,368.400 309.997,368.400 309.720 C 368.400 309.443,369.300 307.983,370.400 306.476 C 371.500 304.968,372.400 303.539,372.400 303.301 C 372.400 303.062,372.537 302.807,372.704 302.733 C 373.105 302.557,375.200 298.460,375.200 297.851 C 375.200 297.590,375.560 297.117,376.000 296.800 C 376.440 296.483,376.800 296.029,376.800 295.791 C 376.800 295.125,377.763 293.207,378.100 293.203 C 378.265 293.201,378.401 292.975,378.402 292.700 C 378.404 291.858,380.291 288.425,380.588 288.721 C 380.741 288.875,380.830 288.820,380.786 288.600 C 380.598 287.667,380.830 286.771,381.200 287.000 C 381.420 287.136,381.623 286.877,381.650 286.424 C 381.678 285.971,381.747 285.465,381.804 285.300 C 381.861 285.135,382.039 284.595,382.200 284.100 C 382.362 283.605,382.652 283.200,382.847 283.200 C 383.041 283.200,383.200 282.840,383.200 282.400 C 383.200 281.960,383.380 281.600,383.600 281.600 C 383.820 281.600,384.000 281.240,384.000 280.800 C 384.000 280.360,384.136 280.000,384.303 280.000 C 384.469 280.000,384.839 279.235,385.125 278.300 C 385.854 275.915,386.543 274.400,386.898 274.400 C 387.064 274.400,387.200 273.961,387.200 273.424 C 387.200 272.887,387.344 272.358,387.521 272.249 C 387.697 272.140,388.090 271.139,388.393 270.025 C 388.696 268.911,389.092 268.000,389.272 268.000 C 389.453 268.000,389.600 267.460,389.600 266.800 C 389.600 266.140,389.757 265.600,389.949 265.600 C 390.279 265.600,390.982 262.772,390.919 261.700 C 390.902 261.425,391.049 261.200,391.244 261.200 C 391.440 261.200,391.600 260.559,391.600 259.776 C 391.600 258.929,391.762 258.453,392.000 258.600 C 392.242 258.750,392.400 258.196,392.400 257.200 C 392.400 256.204,392.558 255.650,392.800 255.800 C 393.033 255.944,393.200 255.545,393.200 254.847 C 393.200 254.187,393.380 253.536,393.600 253.400 C 393.820 253.264,394.000 252.533,394.000 251.776 C 394.000 251.019,394.143 250.400,394.318 250.400 C 394.493 250.400,394.681 249.725,394.736 248.900 C 394.790 248.075,395.007 247.340,395.218 247.267 C 395.428 247.193,395.600 246.464,395.600 245.647 C 395.600 244.829,395.763 243.989,395.961 243.780 C 396.296 243.428,396.433 242.636,397.049 237.500 C 397.175 236.455,397.440 235.600,397.639 235.600 C 397.837 235.600,398.000 234.736,398.000 233.680 C 398.000 232.624,398.225 231.518,398.500 231.221 C 398.906 230.784,398.888 230.742,398.400 231.000 C 397.912 231.258,397.894 231.216,398.300 230.779 C 398.599 230.457,398.800 229.137,398.800 227.496 C 398.800 225.987,398.955 224.848,399.144 224.965 C 399.669 225.290,399.800 220.289,399.800 200.000 C 399.800 179.711,399.669 174.710,399.144 175.035 C 398.955 175.152,398.800 174.013,398.800 172.504 C 398.800 170.863,398.599 169.543,398.300 169.221 C 397.894 168.784,397.912 168.742,398.400 169.000 C 398.888 169.258,398.906 169.216,398.500 168.779 C 398.225 168.482,398.000 167.376,398.000 166.320 C 398.000 165.264,397.837 164.400,397.639 164.400 C 397.440 164.400,397.175 163.545,397.049 162.500 C 396.433 157.364,396.296 156.572,395.961 156.220 C 395.763 156.011,395.600 155.171,395.600 154.353 C 395.600 153.536,395.428 152.807,395.218 152.733 C 395.007 152.660,394.790 151.925,394.736 151.100 C 394.681 150.275,394.493 149.600,394.318 149.600 C 394.143 149.600,394.000 148.981,394.000 148.224 C 394.000 147.467,393.820 146.736,393.600 146.600 C 393.380 146.464,393.200 145.813,393.200 145.153 C 393.200 144.455,393.033 144.056,392.800 144.200 C 392.558 144.350,392.400 143.796,392.400 142.800 C 392.400 141.804,392.242 141.250,392.000 141.400 C 391.769 141.543,391.600 141.160,391.600 140.490 C 391.600 139.854,391.467 139.201,391.305 139.038 C 391.143 138.876,390.995 138.531,390.977 138.272 C 390.870 136.748,390.246 134.400,389.949 134.400 C 389.757 134.400,389.600 133.860,389.600 133.200 C 389.600 132.540,389.453 132.000,389.272 132.000 C 389.092 132.000,388.696 131.089,388.393 129.975 C 388.090 128.861,387.697 127.860,387.521 127.751 C 387.344 127.642,387.200 127.113,387.200 126.576 C 387.200 126.039,387.064 125.600,386.898 125.600 C 386.543 125.600,385.854 124.085,385.125 121.700 C 384.839 120.765,384.469 120.000,384.303 120.000 C 384.136 120.000,384.000 119.640,384.000 119.200 C 384.000 118.760,383.820 118.400,383.600 118.400 C 383.380 118.400,383.200 118.040,383.200 117.600 C 383.200 117.160,383.041 116.800,382.847 116.800 C 382.652 116.800,382.362 116.395,382.200 115.900 C 382.039 115.405,381.861 114.865,381.804 114.700 C 381.747 114.535,381.678 114.029,381.650 113.576 C 381.623 113.123,381.420 112.864,381.200 113.000 C 380.830 113.229,380.598 112.333,380.786 111.400 C 380.830 111.180,380.741 111.125,380.588 111.279 C 380.291 111.575,378.404 108.142,378.402 107.300 C 378.401 107.025,378.265 106.799,378.100 106.797 C 377.763 106.793,376.800 104.875,376.800 104.209 C 376.800 103.971,376.440 103.517,376.000 103.200 C 375.560 102.883,375.200 102.303,375.200 101.912 C 375.200 101.520,375.020 101.200,374.800 101.200 C 374.580 101.200,374.424 101.065,374.454 100.900 C 374.552 100.360,373.087 97.200,372.739 97.200 C 372.553 97.200,372.400 96.990,372.400 96.733 C 372.400 96.476,371.500 95.032,370.400 93.524 C 369.300 92.017,368.400 90.557,368.400 90.280 C 368.400 90.003,368.040 89.517,367.600 89.200 C 367.160 88.883,366.800 88.369,366.800 88.059 C 366.800 87.748,366.484 87.203,366.097 86.847 C 365.711 86.491,365.140 85.705,364.830 85.100 C 364.519 84.495,364.115 84.000,363.932 84.000 C 363.750 84.000,363.600 83.629,363.600 83.176 C 363.600 82.723,363.420 82.464,363.200 82.600 C 362.980 82.736,362.800 82.639,362.800 82.384 C 362.800 82.129,362.241 81.399,361.558 80.760 C 360.874 80.122,360.533 79.600,360.800 79.600 C 361.067 79.600,360.726 79.078,360.042 78.440 C 359.359 77.801,358.800 77.164,358.800 77.023 C 358.800 76.714,358.219 75.997,356.527 74.218 C 355.826 73.482,355.327 72.806,355.418 72.715 C 355.508 72.625,354.686 71.596,353.591 70.430 C 352.496 69.263,351.600 68.161,351.600 67.980 C 351.600 67.723,347.635 63.693,341.885 58.106 C 341.713 57.938,340.136 56.315,338.381 54.500 C 336.627 52.685,334.984 51.200,334.729 51.200 C 334.475 51.200,334.378 51.089,334.514 50.952 C 334.809 50.658,333.828 49.600,333.260 49.600 C 333.041 49.600,331.549 48.340,329.944 46.800 C 328.338 45.260,326.876 44.000,326.694 44.000 C 326.512 44.000,325.930 43.595,325.401 43.100 C 323.937 41.731,323.260 41.200,322.977 41.200 C 322.836 41.200,322.199 40.641,321.560 39.958 C 320.922 39.274,320.400 38.920,320.400 39.171 C 320.400 39.422,319.764 38.991,318.987 38.213 C 318.209 37.436,317.427 36.800,317.249 36.800 C 317.070 36.800,316.401 36.350,315.762 35.800 C 315.123 35.251,314.415 34.801,314.188 34.800 C 313.962 34.800,313.517 34.440,313.200 34.000 C 312.883 33.560,312.303 33.200,311.912 33.200 C 311.520 33.200,311.200 33.020,311.200 32.800 C 311.200 32.580,310.957 32.400,310.659 32.400 C 310.362 32.400,309.594 31.905,308.952 31.300 C 308.311 30.695,307.249 29.930,306.593 29.600 C 305.937 29.270,305.051 28.685,304.625 28.300 C 304.198 27.915,303.628 27.600,303.358 27.600 C 303.088 27.600,302.807 27.465,302.733 27.300 C 302.566 26.923,299.505 25.431,299.100 25.528 C 298.935 25.568,298.800 25.420,298.800 25.200 C 298.800 24.980,298.522 24.800,298.183 24.800 C 297.844 24.800,297.180 24.440,296.708 24.000 C 295.927 23.272,295.159 23.008,294.270 23.163 C 294.089 23.194,294.055 23.035,294.194 22.810 C 294.336 22.579,294.077 22.400,293.600 22.400 C 293.134 22.400,292.864 22.220,293.000 22.000 C 293.136 21.780,293.007 21.600,292.713 21.600 C 292.072 21.600,287.488 19.264,287.193 18.787 C 287.078 18.603,286.538 18.369,285.993 18.268 C 284.280 17.951,283.200 17.520,283.200 17.153 C 283.200 16.959,282.840 16.800,282.400 16.800 C 281.960 16.800,281.600 16.620,281.600 16.400 C 281.600 16.180,281.240 16.000,280.800 16.000 C 280.360 16.000,280.000 15.820,280.000 15.600 C 280.000 15.380,279.640 15.200,279.200 15.200 C 278.760 15.200,278.400 15.058,278.400 14.885 C 278.400 14.712,278.029 14.542,277.576 14.508 C 276.512 14.428,274.400 13.493,274.400 13.102 C 274.400 12.936,273.986 12.800,273.480 12.800 C 272.974 12.800,272.344 12.584,272.080 12.320 C 271.816 12.056,271.600 11.971,271.600 12.130 C 271.600 12.290,271.069 12.146,270.420 11.810 C 269.771 11.475,268.860 11.200,268.396 11.200 C 267.932 11.200,267.664 11.020,267.800 10.800 C 267.940 10.574,267.612 10.400,267.047 10.400 C 266.497 10.400,265.936 10.220,265.800 10.000 C 265.221 9.063,263.700 9.592,263.211 10.900 C 262.943 11.615,262.201 13.438,261.562 14.952 C 260.923 16.465,260.400 17.950,260.400 18.252 C 260.400 18.553,260.220 18.800,260.000 18.800 C 259.780 18.800,259.600 19.239,259.600 19.776 C 259.600 20.313,259.420 20.864,259.200 21.000 C 258.980 21.136,258.800 21.599,258.800 22.029 C 258.800 22.459,258.635 23.123,258.434 23.505 C 258.233 23.887,257.683 25.190,257.213 26.400 C 256.198 29.010,255.634 30.350,255.153 31.295 C 254.959 31.677,254.800 32.264,254.800 32.600 C 254.800 32.936,254.638 33.523,254.440 33.905 C 254.058 34.643,252.609 38.359,251.285 42.000 C 249.338 47.354,247.875 51.029,247.551 51.380 C 247.358 51.589,247.200 52.144,247.200 52.613 C 247.200 53.083,247.078 53.589,246.929 53.738 C 246.691 53.976,246.265 55.089,244.267 60.700 C 244.013 61.415,243.668 62.000,243.502 62.000 C 243.336 62.000,243.200 62.439,243.200 62.976 C 243.200 63.513,243.020 64.064,242.800 64.200 C 242.580 64.336,242.400 64.799,242.400 65.229 C 242.400 65.659,242.192 66.413,241.938 66.905 C 241.010 68.699,240.800 69.197,240.800 69.599 C 240.800 69.993,239.529 73.055,238.767 74.495 C 238.565 74.877,238.400 75.516,238.400 75.915 C 238.400 76.314,238.251 76.811,238.070 77.020 C 237.888 77.229,237.495 78.210,237.198 79.200 C 236.900 80.190,236.542 81.180,236.403 81.400 C 236.263 81.620,235.651 83.150,235.043 84.800 C 233.166 89.888,231.561 94.158,231.172 95.100 C 230.967 95.595,230.632 96.405,230.426 96.900 C 230.221 97.395,229.824 98.520,229.545 99.400 C 229.265 100.280,228.893 101.171,228.718 101.380 C 228.543 101.589,228.400 101.996,228.400 102.284 C 228.400 102.771,227.215 105.692,226.367 107.295 C 226.165 107.677,226.000 108.352,226.000 108.795 C 226.000 109.238,225.820 109.600,225.600 109.600 C 225.380 109.600,225.200 110.039,225.200 110.576 C 225.200 111.113,225.020 111.664,224.800 111.800 C 224.580 111.936,224.400 112.369,224.400 112.762 C 224.400 113.155,224.150 114.000,223.844 114.639 C 222.606 117.222,221.999 118.746,220.997 121.788 C 220.085 124.557,219.431 126.298,217.988 129.800 C 217.807 130.240,217.098 132.130,216.413 134.000 C 215.728 135.870,215.019 137.760,214.837 138.200 C 213.834 140.630,213.472 141.468,213.153 142.095 C 212.959 142.477,212.800 143.116,212.800 143.515 C 212.800 143.914,212.657 144.411,212.482 144.620 C 212.307 144.829,211.922 145.720,211.628 146.600 C 211.076 148.249,209.815 151.270,209.167 152.495 C 208.965 152.877,208.800 153.541,208.800 153.971 C 208.800 154.401,208.620 154.864,208.400 155.000 C 208.180 155.136,208.000 155.599,208.000 156.029 C 208.000 156.459,207.835 157.123,207.633 157.505 C 206.883 158.923,205.681 161.876,204.827 164.400 C 204.343 165.830,203.793 167.360,203.605 167.800 C 203.416 168.240,202.948 169.500,202.565 170.600 C 202.182 171.700,201.718 172.771,201.534 172.980 C 200.141 174.565,202.880 175.422,206.172 174.430 C 207.222 174.113,212.403 173.144,218.200 172.179 C 221.300 171.664,224.624 171.198,226.800 170.974 C 228.010 170.849,229.360 170.588,229.800 170.393 C 230.240 170.198,231.500 169.956,232.600 169.855 C 233.700 169.753,236.580 169.296,239.000 168.839 C 241.420 168.382,244.660 167.812,246.200 167.572 C 251.882 166.687,254.252 166.324,256.400 166.006 C 257.610 165.828,260.220 165.381,262.200 165.013 C 264.180 164.646,267.060 164.165,268.600 163.946 C 270.140 163.726,272.570 163.366,274.000 163.146 C 275.430 162.926,277.590 162.599,278.800 162.418 C 280.010 162.238,283.070 161.700,285.600 161.222 C 290.265 160.342,293.383 159.820,297.900 159.163 C 299.275 158.963,301.615 158.614,303.100 158.386 C 309.240 157.444,311.867 157.567,310.177 158.717 C 309.947 158.872,308.329 160.902,306.580 163.227 C 304.831 165.551,301.500 169.961,299.178 173.027 C 296.856 176.092,294.280 179.500,293.453 180.600 C 292.625 181.700,291.375 183.305,290.674 184.167 C 289.973 185.029,288.860 186.500,288.200 187.436 C 287.121 188.966,282.957 194.477,281.728 196.000 C 281.462 196.330,280.380 197.770,279.322 199.200 C 277.207 202.062,276.452 203.024,275.700 203.816 C 275.425 204.106,275.200 204.492,275.200 204.674 C 275.200 204.856,274.480 205.769,273.600 206.703 C 272.720 207.637,272.000 208.506,272.000 208.633 C 272.000 208.893,264.550 218.870,263.243 220.361 C 262.779 220.890,262.400 221.437,262.400 221.578 C 262.400 221.718,261.770 222.501,261.000 223.318 C 260.230 224.134,259.600 224.947,259.600 225.126 C 259.600 225.304,259.282 225.798,258.894 226.225 C 258.505 226.651,256.570 229.139,254.594 231.754 C 252.617 234.369,250.550 237.103,250.000 237.830 C 249.450 238.557,248.382 240.018,247.626 241.076 C 246.871 242.134,246.151 243.090,246.026 243.200 C 245.902 243.310,245.177 244.210,244.415 245.200 C 243.653 246.190,242.888 247.060,242.715 247.133 C 242.542 247.207,242.400 247.522,242.400 247.833 C 242.400 248.145,242.259 248.400,242.086 248.400 C 241.914 248.400,241.457 248.933,241.072 249.585 C 240.687 250.237,240.147 251.002,239.873 251.285 C 239.598 251.568,238.938 252.430,238.406 253.200 C 237.874 253.970,237.328 254.690,237.194 254.800 C 237.059 254.910,235.525 256.890,233.785 259.200 C 232.044 261.510,230.398 263.670,230.126 264.000 C 229.855 264.330,228.714 265.860,227.591 267.400 C 224.783 271.251,223.960 272.346,222.800 273.771 C 221.416 275.472,221.809 274.956,215.333 283.600 C 212.119 287.890,209.371 291.490,209.226 291.600 C 209.080 291.710,208.529 292.430,208.000 293.200 C 207.471 293.970,206.931 294.690,206.800 294.800 C 206.669 294.910,206.129 295.630,205.600 296.400 C 205.071 297.170,204.539 297.890,204.418 298.000 C 204.124 298.266,197.321 307.239,195.817 309.344 C 195.167 310.255,194.447 311.196,194.217 311.437 C 193.791 311.883,193.490 312.277,190.131 316.800 C 189.069 318.230,187.977 319.670,187.703 320.000 C 187.429 320.330,186.799 321.164,186.303 321.853 C 184.151 324.841,177.175 333.968,176.614 334.528 C 176.276 334.866,176.000 335.321,176.000 335.538 C 176.000 335.755,175.862 335.993,175.693 336.067 C 175.524 336.140,173.421 338.810,171.018 342.000 C 166.922 347.439,161.832 354.146,159.028 357.800 C 158.353 358.680,157.692 359.490,157.560 359.600 C 157.428 359.710,157.248 359.998,157.160 360.239 C 157.072 360.481,156.427 361.381,155.726 362.239 C 155.025 363.098,152.969 365.780,151.157 368.200 C 149.344 370.620,147.173 373.435,146.331 374.456 C 145.489 375.476,144.799 376.466,144.798 376.656 C 144.797 376.845,144.296 377.540,143.685 378.200 C 143.074 378.860,142.139 380.030,141.606 380.800 C 141.074 381.570,140.539 382.290,140.418 382.400 C 140.297 382.510,139.388 383.678,138.399 384.996 C 133.662 391.305,133.069 390.275,136.672 382.000 C 137.804 379.401,137.958 379.004,138.544 377.200 C 139.434 374.456,141.553 369.175,142.434 367.505 C 142.635 367.123,142.800 366.536,142.800 366.200 C 142.800 365.864,142.967 365.277,143.170 364.895 C 143.374 364.513,144.019 362.940,144.604 361.400 C 145.189 359.860,145.910 358.060,146.207 357.400 C 146.503 356.740,147.037 355.313,147.392 354.230 C 147.747 353.146,148.408 351.346,148.860 350.230 C 150.164 347.012,150.292 346.680,150.800 345.200 C 151.064 344.430,151.424 343.440,151.599 343.000 C 151.774 342.560,152.306 341.210,152.780 340.000 C 153.822 337.343,154.377 336.029,154.847 335.105 C 155.041 334.723,155.200 334.136,155.200 333.800 C 155.200 333.464,155.359 332.877,155.553 332.495 C 155.748 332.113,156.081 331.350,156.295 330.800 C 156.508 330.250,157.069 328.940,157.541 327.889 C 158.014 326.838,158.400 325.713,158.400 325.389 C 158.400 325.065,158.580 324.800,158.800 324.800 C 159.020 324.800,159.200 324.361,159.200 323.824 C 159.200 323.287,159.380 322.736,159.600 322.600 C 159.820 322.464,160.000 322.001,160.000 321.571 C 160.000 321.141,160.169 320.477,160.375 320.095 C 160.582 319.713,161.678 316.970,162.811 314.000 C 165.095 308.014,166.711 303.817,167.199 302.600 C 167.375 302.160,167.736 301.170,168.000 300.400 C 168.605 298.640,168.876 297.932,170.000 295.200 C 170.498 293.990,171.082 292.550,171.299 292.000 C 171.516 291.450,171.852 290.687,172.047 290.305 C 172.241 289.923,172.400 289.336,172.400 289.000 C 172.400 288.664,172.559 288.077,172.753 287.695 C 172.948 287.313,173.282 286.550,173.497 286.000 C 173.711 285.450,174.272 284.218,174.743 283.262 C 175.214 282.306,175.600 281.269,175.600 280.957 C 175.600 280.645,175.780 280.032,176.000 279.595 C 176.220 279.158,176.580 278.442,176.800 278.005 C 177.020 277.568,177.200 276.936,177.200 276.600 C 177.200 276.264,177.363 275.677,177.563 275.295 C 178.015 274.430,180.029 269.397,181.204 266.200 C 181.960 264.142,183.265 260.718,184.406 257.800 C 184.578 257.360,184.936 256.370,185.200 255.600 C 185.697 254.152,185.793 253.912,187.174 250.649 C 187.628 249.576,188.000 248.451,188.000 248.149 C 188.000 247.847,188.180 247.600,188.400 247.600 C 188.620 247.600,188.800 247.161,188.800 246.624 C 188.800 246.087,188.980 245.536,189.200 245.400 C 189.420 245.264,189.600 244.801,189.600 244.371 C 189.600 243.941,189.765 243.277,189.966 242.895 C 190.168 242.513,190.638 241.480,191.010 240.600 C 191.382 239.720,191.938 238.477,192.244 237.839 C 192.550 237.200,192.800 236.355,192.800 235.962 C 192.800 235.569,192.980 235.136,193.200 235.000 C 193.420 234.864,193.600 234.324,193.600 233.800 C 193.600 233.276,193.780 232.736,194.000 232.600 C 194.220 232.464,194.400 231.995,194.400 231.558 C 194.400 230.683,194.844 230.666,188.200 231.796 C 186.440 232.095,183.650 232.543,182.000 232.792 C 180.350 233.041,178.100 233.409,177.000 233.611 C 175.900 233.813,174.460 234.057,173.800 234.154 C 173.140 234.251,170.980 234.628,169.000 234.991 C 165.187 235.692,162.361 236.149,157.800 236.803 C 153.343 237.442,150.912 237.854,146.000 238.803 C 140.498 239.865,137.359 240.366,134.400 240.655 C 133.190 240.774,132.029 241.035,131.820 241.235 C 131.611 241.436,130.432 241.600,129.200 241.600 C 127.968 241.600,126.789 241.764,126.580 241.965 C 126.371 242.165,125.210 242.420,124.000 242.530 C 122.790 242.640,119.910 243.111,117.600 243.577 C 105.572 245.999,102.736 245.937,105.188 243.305 C 105.634 242.826,106.000 242.291,106.001 242.117 C 106.001 241.943,106.541 241.170,107.201 240.400 C 107.860 239.630,108.675 238.423,109.010 237.719 C 109.345 237.014,109.840 236.204,110.110 235.919 C 110.580 235.421,113.370 231.326,114.200 229.915 C 115.241 228.146,120.221 220.985,120.493 220.867 C 120.662 220.793,120.800 220.558,120.800 220.345 C 120.800 219.895,123.816 215.372,124.881 214.225 C 125.276 213.798,125.600 213.213,125.600 212.925 C 125.600 212.636,125.780 212.400,126.000 212.400 C 126.220 212.400,126.400 212.164,126.400 211.875 C 126.400 211.587,126.718 211.002,127.107 210.575 C 127.784 209.833,130.784 205.460,131.200 204.609 C 131.501 203.994,137.295 195.430,137.566 195.200 C 137.695 195.090,138.056 194.505,138.368 193.900 C 138.680 193.295,139.085 192.800,139.268 192.800 C 139.450 192.800,139.600 192.575,139.601 192.300 C 139.601 192.025,140.141 191.170,140.801 190.400 C 141.460 189.630,142.275 188.423,142.610 187.719 C 142.945 187.014,143.440 186.196,143.710 185.902 C 143.979 185.607,144.380 185.085,144.600 184.742 C 144.820 184.398,145.529 183.326,146.176 182.359 C 146.824 181.391,148.792 178.440,150.552 175.800 C 152.311 173.160,153.897 170.940,154.075 170.867 C 154.254 170.793,154.400 170.558,154.400 170.345 C 154.400 169.895,157.416 165.372,158.481 164.225 C 158.876 163.798,159.200 163.213,159.200 162.925 C 159.200 162.636,159.380 162.400,159.600 162.400 C 159.820 162.400,160.000 162.192,160.000 161.938 C 160.000 161.684,160.421 160.919,160.935 160.238 C 162.370 158.339,164.648 155.043,164.834 154.598 C 165.185 153.756,170.950 145.393,171.266 145.267 C 171.450 145.193,171.600 144.960,171.600 144.749 C 171.600 144.537,172.545 143.000,173.700 141.332 C 174.855 139.665,176.019 137.918,176.286 137.450 C 176.553 136.983,177.411 135.700,178.192 134.600 C 178.974 133.500,181.350 129.990,183.472 126.800 C 185.594 123.610,187.481 120.940,187.665 120.867 C 187.849 120.793,188.000 120.560,188.000 120.349 C 188.000 119.863,192.024 113.846,192.470 113.667 C 192.651 113.593,192.800 113.278,192.800 112.967 C 192.800 112.655,192.980 112.400,193.200 112.400 C 193.420 112.400,193.600 112.228,193.600 112.019 C 193.600 111.531,204.418 95.445,204.865 95.267 C 205.049 95.193,205.200 94.960,205.200 94.749 C 205.200 94.263,209.224 88.246,209.670 88.067 C 209.851 87.993,210.000 87.780,210.000 87.592 C 210.000 87.134,226.448 62.637,226.870 62.467 C 227.051 62.393,227.200 62.163,227.200 61.955 C 227.200 61.464,238.007 45.441,238.457 45.267 C 238.646 45.193,238.800 44.960,238.800 44.749 C 238.800 44.263,242.824 38.246,243.270 38.067 C 243.451 37.993,243.600 37.776,243.600 37.584 C 243.600 37.120,260.042 12.638,260.468 12.467 C 260.651 12.393,260.800 11.988,260.800 11.567 C 260.800 11.145,260.986 10.800,261.213 10.800 C 261.440 10.800,261.778 10.395,261.963 9.900 C 262.353 8.858,261.768 8.473,259.724 8.428 C 259.022 8.413,258.336 8.220,258.200 8.000 C 258.064 7.780,257.524 7.600,257.000 7.600 C 256.476 7.600,255.936 7.420,255.800 7.200 C 255.664 6.980,255.124 6.800,254.600 6.800 C 254.076 6.800,253.536 6.620,253.400 6.400 C 253.264 6.180,252.533 6.000,251.776 6.000 C 251.019 6.000,250.400 5.857,250.400 5.682 C 250.400 5.507,249.725 5.319,248.900 5.264 C 248.075 5.210,247.340 4.993,247.267 4.782 C 247.193 4.572,246.439 4.400,245.590 4.400 C 244.742 4.400,243.958 4.256,243.849 4.080 C 243.740 3.904,242.891 3.715,241.962 3.660 C 241.033 3.605,239.953 3.389,239.563 3.180 C 239.172 2.971,238.121 2.800,237.226 2.800 C 236.332 2.800,235.600 2.620,235.600 2.400 C 235.600 2.180,234.621 2.000,233.424 2.000 C 232.227 2.000,231.136 1.820,231.000 1.600 C 230.864 1.380,229.518 1.200,228.010 1.200 C 226.193 1.200,225.211 1.034,225.103 0.708 C 224.941 0.222,187.291 -0.126,178.300 0.275 " stroke="none" fill="#047cec" fill-rule="evenodd"></path><path id="path2" d="M260.622 12.300 L 259.953 13.400 260.740 12.500 C 261.790 11.301,262.141 11.365,261.831 12.700 C 261.642 13.516,261.680 13.645,261.982 13.200 C 262.568 12.333,262.491 11.200,261.846 11.200 C 261.541 11.200,260.991 11.695,260.622 12.300 " stroke="none" fill="#60acf4" fill-rule="evenodd"></path><path id="path3" d="M259.561 14.302 C 256.813 18.335,256.283 19.200,256.559 19.200 C 256.697 19.200,257.705 17.805,258.798 16.100 C 260.411 13.584,260.787 13.195,260.793 14.033 C 260.797 14.602,260.677 15.190,260.526 15.341 C 260.186 15.681,259.205 18.456,259.232 19.000 C 259.259 19.529,261.965 12.746,261.985 12.100 C 262.016 11.073,261.348 11.680,259.561 14.302 M251.404 26.500 C 248.872 30.295,245.164 35.830,243.163 38.800 C 238.818 45.249,239.102 44.800,239.370 44.800 C 239.490 44.800,240.461 43.495,241.528 41.900 C 242.595 40.305,245.703 35.664,248.434 31.588 C 255.481 21.069,256.434 19.600,256.208 19.600 C 256.098 19.600,253.936 22.705,251.404 26.500 M258.398 20.645 C 257.110 24.157,255.094 29.506,254.799 30.200 C 254.611 30.640,253.987 32.260,253.411 33.800 C 252.835 35.340,252.186 37.028,251.967 37.552 C 251.749 38.075,251.662 38.595,251.774 38.707 C 251.886 38.819,252.171 38.391,252.407 37.755 C 253.770 34.084,255.905 28.420,257.432 24.423 C 258.393 21.906,259.099 19.766,259.001 19.668 C 258.903 19.569,258.632 20.009,258.398 20.645 M249.451 44.251 C 248.391 47.004,247.598 49.331,247.689 49.423 C 247.780 49.514,248.349 48.286,248.952 46.694 C 249.555 45.102,250.199 43.440,250.384 43.000 C 251.246 40.945,251.693 39.560,251.544 39.410 C 251.454 39.320,250.512 41.499,249.451 44.251 M232.113 55.220 C 223.305 68.369,222.691 69.315,223.156 69.027 C 223.372 68.894,226.925 63.703,231.051 57.492 C 235.176 51.281,238.719 45.975,238.925 45.700 C 239.130 45.425,239.192 45.200,239.062 45.200 C 238.932 45.200,235.805 49.709,232.113 55.220 M245.450 54.849 C 244.339 57.790,244.103 58.397,243.250 60.519 C 243.002 61.134,242.810 61.854,242.823 62.119 C 242.836 62.383,243.735 60.350,244.822 57.600 C 245.909 54.850,246.746 52.442,246.682 52.249 C 246.618 52.056,246.064 53.226,245.450 54.849 M240.218 68.682 C 239.405 70.837,238.586 72.960,238.398 73.400 C 238.210 73.840,236.504 78.340,234.606 83.400 C 232.708 88.460,230.978 93.028,230.762 93.552 C 230.547 94.075,230.448 94.582,230.544 94.677 C 230.640 94.773,231.382 93.085,232.195 90.926 C 233.007 88.767,233.823 86.640,234.008 86.200 C 234.193 85.760,235.449 82.430,236.800 78.800 C 238.151 75.170,239.408 71.840,239.593 71.400 C 240.548 69.141,241.970 65.036,241.842 64.909 C 241.762 64.829,241.031 66.527,240.218 68.682 M215.334 80.223 C 206.776 92.955,205.506 94.905,205.953 94.629 C 206.584 94.239,222.210 70.800,221.839 70.800 C 221.744 70.800,218.817 75.040,215.334 80.223 M198.377 105.500 C 194.580 111.165,187.071 122.349,181.689 130.353 C 176.308 138.357,172.116 144.776,172.373 144.616 C 172.631 144.457,175.501 140.339,178.752 135.464 C 182.003 130.589,189.251 119.760,194.857 111.400 C 205.980 94.816,205.728 95.200,205.464 95.200 C 205.363 95.200,202.174 99.835,198.377 105.500 M229.217 97.628 C 228.346 100.026,228.043 100.807,226.856 103.719 C 226.605 104.334,226.410 105.054,226.423 105.319 C 226.436 105.583,227.335 103.550,228.422 100.800 C 229.509 98.050,230.342 95.632,230.275 95.428 C 230.207 95.223,229.731 96.213,229.217 97.628 M223.502 112.698 C 222.938 114.184,221.630 117.616,220.595 120.324 C 219.561 123.032,218.792 125.325,218.887 125.420 C 218.981 125.515,219.913 123.299,220.956 120.496 C 221.999 117.693,223.319 114.273,223.889 112.895 C 224.458 111.518,224.835 110.302,224.726 110.193 C 224.617 110.084,224.067 111.211,223.502 112.698 M216.610 130.876 C 215.578 133.584,214.545 136.301,214.313 136.913 C 214.082 137.525,213.968 138.101,214.060 138.194 C 214.153 138.286,214.911 136.525,215.746 134.281 C 217.239 130.266,217.438 129.746,218.365 127.448 C 218.621 126.815,218.753 126.219,218.658 126.125 C 218.563 126.030,217.642 128.168,216.610 130.876 M213.193 139.845 C 211.346 144.819,209.877 148.728,209.601 149.400 C 209.016 150.829,207.319 155.309,205.814 159.400 C 205.004 161.600,204.112 163.940,203.831 164.600 C 202.701 167.253,202.301 168.434,202.474 168.607 C 202.661 168.795,202.797 168.456,207.589 155.800 C 210.374 148.446,211.386 145.804,213.165 141.237 C 213.629 140.048,213.921 138.988,213.815 138.882 C 213.709 138.776,213.429 139.209,213.193 139.845 M170.321 147.300 C 167.293 151.801,166.311 153.376,166.889 152.800 C 167.846 151.846,172.090 145.557,171.903 145.369 C 171.809 145.276,171.098 146.145,170.321 147.300 M157.985 165.652 C 153.542 172.281,150.099 177.586,150.334 177.441 C 150.986 177.038,166.637 153.600,166.255 153.600 C 166.149 153.600,162.428 159.024,157.985 165.652 M306.000 158.433 C 304.833 158.707,304.949 158.735,306.700 158.600 C 308.818 158.436,309.216 158.703,308.300 159.671 C 307.702 160.304,306.398 162.015,287.782 186.600 C 278.430 198.950,269.454 210.785,264.289 217.577 C 259.148 224.337,258.966 224.592,259.509 224.257 C 259.754 224.105,262.094 221.150,264.709 217.690 C 269.117 211.856,274.641 204.561,287.646 187.400 C 290.480 183.660,295.274 177.346,298.299 173.370 C 311.749 155.692,310.931 157.278,306.000 158.433 M300.600 159.208 C 299.720 159.385,297.566 159.758,295.814 160.036 C 294.062 160.315,292.839 160.613,293.097 160.699 C 293.599 160.866,303.664 159.270,303.958 158.976 C 304.217 158.716,302.429 158.840,300.600 159.208 M288.800 161.200 C 287.396 161.650,288.863 161.665,291.000 161.223 L 292.600 160.892 291.200 160.886 C 290.430 160.883,289.350 161.024,288.800 161.200 M284.600 161.827 C 284.380 161.918,283.120 162.149,281.800 162.342 C 275.180 163.308,263.616 165.349,263.787 165.521 C 263.977 165.710,266.996 165.289,273.200 164.210 C 274.850 163.922,277.460 163.481,279.000 163.229 C 287.259 161.875,288.115 161.696,286.400 161.678 C 285.630 161.670,284.820 161.737,284.600 161.827 M259.600 166.000 C 258.628 166.311,258.633 166.320,259.800 166.320 C 260.460 166.320,261.450 166.176,262.000 166.000 C 262.972 165.689,262.967 165.680,261.800 165.680 C 261.140 165.680,260.150 165.824,259.600 166.000 M255.530 166.603 C 255.419 166.715,254.084 166.971,252.564 167.173 C 251.044 167.374,247.640 167.906,245.000 168.355 C 242.360 168.804,238.891 169.384,237.291 169.643 C 235.692 169.903,234.476 170.209,234.589 170.323 C 234.703 170.436,236.102 170.309,237.698 170.039 C 239.294 169.770,241.590 169.390,242.800 169.194 C 255.561 167.131,258.926 166.485,257.167 166.438 C 256.378 166.417,255.642 166.491,255.530 166.603 M230.400 170.800 C 229.425 171.112,229.430 171.121,230.600 171.132 C 231.260 171.138,232.160 170.989,232.600 170.800 C 233.694 170.330,231.867 170.330,230.400 170.800 M224.600 171.645 C 223.018 171.990,215.246 173.309,210.600 174.020 C 206.343 174.672,204.474 175.107,205.723 175.156 C 206.340 175.180,207.600 175.034,208.523 174.831 C 209.445 174.627,211.460 174.274,213.000 174.044 C 217.586 173.362,228.169 171.578,228.600 171.415 C 229.386 171.117,226.170 171.303,224.600 171.645 M200.072 174.366 C 199.497 176.016,201.131 176.612,203.400 175.580 C 203.941 175.334,203.570 175.295,202.257 175.460 L 200.314 175.704 200.589 174.452 C 200.935 172.875,200.610 172.821,200.072 174.366 M141.195 190.664 C 136.505 197.629,132.870 203.204,133.116 203.052 C 133.740 202.666,150.250 178.000,149.884 178.000 C 149.794 178.000,145.884 183.699,141.195 190.664 M122.098 219.100 C 116.370 227.625,110.224 236.758,108.441 239.396 C 104.785 244.805,104.569 245.432,106.500 245.027 C 108.089 244.694,113.743 243.705,117.000 243.191 C 121.254 242.520,123.094 242.091,121.931 242.044 C 121.342 242.020,119.992 242.178,118.931 242.396 C 115.518 243.097,107.429 244.400,106.489 244.400 C 105.709 244.400,107.424 241.658,118.490 225.212 C 131.768 205.478,133.002 203.600,132.693 203.600 C 132.594 203.600,127.826 210.575,122.098 219.100 M254.541 230.323 C 250.688 235.521,246.457 241.123,236.811 253.800 C 234.467 256.880,229.690 263.180,226.195 267.800 C 222.701 272.420,218.128 278.450,216.034 281.200 C 213.940 283.950,210.605 288.360,208.623 291.000 C 206.642 293.640,204.799 296.070,204.529 296.400 C 203.787 297.307,194.810 309.199,193.659 310.800 C 190.658 314.973,195.002 309.646,200.019 303.000 C 203.175 298.820,206.858 293.960,208.204 292.200 C 209.550 290.440,214.318 284.140,218.800 278.200 C 223.282 272.260,228.053 265.960,229.403 264.200 C 230.753 262.440,234.442 257.580,237.600 253.400 C 240.759 249.220,244.719 244.000,246.400 241.800 C 248.081 239.600,251.495 235.100,253.987 231.800 C 256.479 228.500,258.693 225.575,258.908 225.300 C 259.122 225.025,259.141 224.810,258.949 224.823 C 258.757 224.836,256.773 227.311,254.541 230.323 M192.400 230.014 C 191.630 230.196,189.200 230.630,187.000 230.977 C 181.669 231.818,173.947 233.170,173.200 233.392 C 172.298 233.660,175.867 233.300,178.600 232.846 C 185.275 231.739,193.123 230.386,194.100 230.175 C 195.672 229.834,195.607 230.129,192.159 239.015 C 190.486 243.325,189.198 246.931,189.295 247.028 C 189.392 247.125,189.965 245.899,190.568 244.302 C 191.172 242.706,191.816 241.040,192.000 240.600 C 193.672 236.601,195.928 230.207,195.761 229.937 C 195.512 229.534,194.310 229.562,192.400 230.014 M169.200 234.000 L 168.200 234.320 169.200 234.313 C 169.750 234.309,170.740 234.168,171.400 234.000 L 172.600 233.695 171.400 233.687 C 170.740 233.683,169.750 233.824,169.200 234.000 M164.000 234.803 C 162.725 235.094,158.962 235.738,152.000 236.855 C 150.570 237.085,148.645 237.436,147.723 237.636 C 146.800 237.836,145.540 238.021,144.923 238.046 C 144.266 238.074,144.086 238.168,144.490 238.274 C 145.152 238.447,167.224 234.898,167.567 234.563 C 167.836 234.300,165.519 234.455,164.000 234.803 M140.600 238.800 L 139.400 239.105 140.600 239.113 C 141.260 239.117,142.250 238.976,142.800 238.800 L 143.800 238.480 142.800 238.487 C 142.250 238.491,141.260 238.632,140.600 238.800 M132.857 240.030 C 130.578 240.428,128.598 240.879,128.457 241.033 C 128.315 241.187,128.920 241.190,129.800 241.039 C 130.680 240.888,132.480 240.599,133.800 240.397 C 135.120 240.196,136.920 239.862,137.800 239.655 C 140.656 238.986,137.434 239.230,132.857 240.030 M124.200 241.600 L 123.400 241.944 124.200 241.925 C 124.640 241.914,125.540 241.768,126.200 241.600 L 127.400 241.295 126.200 241.275 C 125.540 241.265,124.640 241.411,124.200 241.600 M187.002 252.474 C 185.968 255.183,184.930 257.805,184.694 258.299 C 184.458 258.794,184.364 259.297,184.484 259.418 C 184.605 259.538,185.369 257.873,186.182 255.718 C 187.629 251.882,187.817 251.397,188.765 249.048 C 189.021 248.415,189.151 247.818,189.056 247.722 C 188.960 247.626,188.036 249.765,187.002 252.474 M181.918 265.713 C 177.411 277.244,176.477 279.800,177.139 278.791 C 177.753 277.854,183.704 262.370,183.520 262.187 C 183.432 262.098,182.710 263.685,181.918 265.713 M174.385 285.272 C 171.717 292.155,171.804 291.900,172.285 291.400 C 172.497 291.180,173.253 289.470,173.966 287.600 C 174.678 285.730,175.630 283.249,176.083 282.086 C 176.535 280.923,176.829 279.896,176.737 279.804 C 176.645 279.711,175.586 282.172,174.385 285.272 M169.851 297.051 C 168.791 299.804,168.002 302.135,168.097 302.231 C 168.193 302.327,168.766 301.099,169.370 299.502 C 169.975 297.906,170.837 295.649,171.287 294.486 C 171.737 293.323,172.031 292.298,171.942 292.209 C 171.853 292.119,170.912 294.299,169.851 297.051 M164.622 310.682 C 163.810 312.837,162.972 315.028,162.758 315.552 C 162.545 316.075,162.443 316.577,162.533 316.666 C 162.622 316.756,163.098 315.787,163.590 314.514 C 164.082 313.241,164.944 311.073,165.505 309.695 C 166.065 308.318,166.428 307.095,166.310 306.977 C 166.193 306.860,165.433 308.527,164.622 310.682 M188.118 317.923 C 183.308 324.377,176.035 334.014,172.363 338.800 C 170.928 340.670,166.896 345.980,163.402 350.600 C 157.515 358.385,154.177 362.781,145.024 374.800 C 143.097 377.330,140.504 380.786,139.260 382.479 C 136.776 385.863,136.250 386.262,136.860 384.300 C 137.682 381.657,137.617 381.457,136.643 383.636 C 134.380 388.695,135.426 388.158,140.216 381.800 C 142.371 378.940,145.240 375.160,146.591 373.400 C 147.943 371.640,152.455 365.700,156.618 360.200 C 160.780 354.700,166.850 346.690,170.105 342.400 C 173.360 338.110,177.797 332.260,179.964 329.400 C 188.182 318.554,192.109 313.383,192.497 312.900 C 192.717 312.625,192.741 312.410,192.549 312.423 C 192.357 312.436,190.363 314.911,188.118 317.923 M161.088 319.885 C 160.529 321.378,159.939 322.960,159.777 323.400 C 159.581 323.932,159.616 324.066,159.881 323.800 C 160.367 323.312,162.488 317.554,162.264 317.330 C 162.176 317.242,161.646 318.392,161.088 319.885 M156.783 331.083 C 154.527 336.967,154.621 336.683,155.083 336.200 C 155.575 335.686,158.944 326.811,158.729 326.596 C 158.640 326.506,157.764 328.525,156.783 331.083 M152.671 341.759 C 151.642 344.482,150.809 346.866,150.821 347.055 C 150.832 347.245,151.377 346.050,152.033 344.400 C 152.688 342.750,153.380 341.040,153.571 340.600 C 154.414 338.662,154.894 337.160,154.724 336.991 C 154.624 336.890,153.699 339.036,152.671 341.759 M147.843 354.290 C 146.095 358.784,145.381 361.193,146.567 358.600 C 147.836 355.825,150.018 349.884,149.835 349.702 C 149.753 349.620,148.856 351.684,147.843 354.290 M143.635 365.235 C 142.946 367.039,142.472 368.605,142.582 368.715 C 142.691 368.825,142.897 368.574,143.038 368.157 C 143.179 367.741,143.736 366.258,144.275 364.861 C 144.815 363.465,145.173 362.240,145.072 362.139 C 144.970 362.037,144.324 363.430,143.635 365.235 M142.000 369.235 C 142.000 369.394,141.101 371.847,139.237 376.774 C 138.785 377.970,138.480 379.013,138.559 379.092 C 138.638 379.172,139.369 377.473,140.182 375.318 C 140.995 373.163,141.857 370.995,142.097 370.501 C 142.338 370.006,142.414 369.481,142.267 369.334 C 142.120 369.187,142.000 369.142,142.000 369.235 " stroke="none" fill="#7cbcf4" fill-rule="evenodd"></path><path id="path4" d="M262.032 9.713 C 262.014 10.104,261.730 10.529,261.400 10.655 C 260.505 10.999,260.675 11.558,261.600 11.316 C 262.681 11.033,262.632 11.776,261.383 14.600 C 260.824 15.865,260.441 16.975,260.533 17.066 C 260.700 17.234,261.493 15.443,262.820 11.900 C 263.378 10.409,263.417 10.000,262.999 10.000 C 262.706 10.000,262.376 9.775,262.265 9.500 C 262.146 9.206,262.050 9.294,262.032 9.713 M257.785 16.100 C 257.168 17.035,256.920 17.589,257.232 17.331 C 257.833 16.834,259.364 14.400,259.076 14.400 C 258.983 14.400,258.402 15.165,257.785 16.100 M249.234 28.848 C 246.115 33.495,243.619 37.353,243.688 37.422 C 243.757 37.490,246.240 33.931,249.207 29.512 C 255.135 20.680,255.315 20.400,255.072 20.400 C 254.980 20.400,252.352 24.202,249.234 28.848 M257.100 25.711 C 256.138 28.044,256.232 28.610,257.220 26.432 C 257.661 25.460,257.972 24.518,257.911 24.339 C 257.850 24.160,257.485 24.778,257.100 25.711 M240.872 41.248 C 238.049 45.532,238.377 45.612,241.298 41.352 C 242.562 39.508,243.462 38.004,243.298 38.009 C 243.134 38.014,242.042 39.471,240.872 41.248 M251.755 39.500 C 251.634 39.885,251.370 40.613,251.167 41.119 C 250.965 41.624,250.811 42.254,250.825 42.519 C 250.839 42.783,251.038 42.550,251.266 42.000 C 251.897 40.480,252.367 38.800,252.160 38.800 C 252.058 38.800,251.876 39.115,251.755 39.500 M250.147 43.900 C 250.022 44.285,249.490 45.758,248.965 47.173 C 248.441 48.588,248.082 49.815,248.167 49.900 C 248.322 50.055,249.796 46.385,250.417 44.300 C 250.771 43.112,250.523 42.745,250.147 43.900 M237.206 46.724 C 236.669 47.536,235.720 48.965,235.096 49.900 C 234.472 50.835,234.057 51.600,234.175 51.600 C 234.448 51.600,238.471 45.537,238.306 45.373 C 238.238 45.304,237.743 45.913,237.206 46.724 M230.390 56.839 C 228.605 59.501,227.210 61.743,227.288 61.822 C 227.367 61.900,228.774 59.958,230.416 57.506 C 234.005 52.143,234.094 52.000,233.837 52.000 C 233.726 52.000,232.174 54.178,230.390 56.839 M245.330 56.709 C 244.879 57.969,244.384 59.360,244.229 59.800 C 244.075 60.240,244.226 60.125,244.565 59.544 C 245.299 58.282,246.521 54.788,246.304 54.571 C 246.219 54.486,245.781 55.448,245.330 56.709 M223.213 67.537 C 218.101 75.180,216.800 77.200,216.991 77.200 C 217.087 77.200,218.764 74.815,220.719 71.900 C 222.674 68.985,224.875 65.748,225.610 64.706 C 226.344 63.664,226.868 62.736,226.773 62.643 C 226.678 62.550,225.076 64.752,223.213 67.537 M213.217 82.448 C 211.427 85.114,210.018 87.352,210.087 87.420 C 210.155 87.488,211.395 85.802,212.841 83.672 C 216.402 78.430,216.927 77.600,216.682 77.600 C 216.566 77.600,215.007 79.782,213.217 82.448 M235.058 83.704 C 234.128 86.140,234.280 86.604,235.236 84.247 C 235.672 83.173,235.958 82.224,235.872 82.138 C 235.786 82.052,235.420 82.757,235.058 83.704 M233.747 87.100 C 233.622 87.485,233.090 88.958,232.565 90.373 C 232.041 91.788,231.682 93.015,231.767 93.100 C 231.922 93.255,233.396 89.585,234.017 87.500 C 234.371 86.312,234.123 85.945,233.747 87.100 M207.272 91.248 C 204.449 95.532,204.777 95.612,207.698 91.352 C 208.962 89.508,209.862 88.004,209.698 88.009 C 209.534 88.014,208.442 89.471,207.272 91.248 M199.083 103.490 C 196.049 108.005,193.630 111.763,193.708 111.842 C 193.787 111.920,196.328 108.282,199.357 103.757 C 202.385 99.231,204.803 95.473,204.731 95.404 C 204.659 95.336,202.117 98.974,199.083 103.490 M229.483 98.284 C 229.363 98.678,229.073 99.618,228.839 100.373 C 228.605 101.128,228.554 101.578,228.725 101.373 C 229.187 100.819,230.103 97.969,229.888 97.754 C 229.785 97.652,229.603 97.890,229.483 98.284 M227.501 103.686 C 227.116 104.593,226.881 105.414,226.977 105.511 C 227.202 105.736,228.455 102.760,228.309 102.347 C 228.249 102.176,227.885 102.779,227.501 103.686 M224.046 112.667 C 224.021 112.924,223.884 113.464,223.741 113.867 C 223.540 114.436,223.594 114.497,223.979 114.142 C 224.252 113.891,224.389 113.351,224.284 112.942 C 224.179 112.534,224.072 112.410,224.046 112.667 M190.072 116.848 C 187.249 121.132,187.577 121.212,190.498 116.952 C 191.762 115.108,192.662 113.604,192.498 113.609 C 192.334 113.614,191.242 115.071,190.072 116.848 M184.401 125.310 C 181.123 130.217,179.260 133.226,179.886 132.600 C 180.635 131.851,187.922 120.800,187.661 120.810 C 187.517 120.815,186.050 122.840,184.401 125.310 M219.048 126.106 C 218.445 127.698,217.805 129.360,217.626 129.800 C 216.577 132.372,216.402 132.883,216.421 133.319 C 216.432 133.583,216.719 133.080,217.057 132.200 C 217.714 130.494,217.736 130.439,219.423 126.295 C 220.029 124.808,220.439 123.505,220.334 123.401 C 220.230 123.297,219.651 124.514,219.048 126.106 M177.814 135.100 C 177.047 136.145,176.415 137.159,176.410 137.354 C 176.400 137.718,177.173 136.777,178.752 134.500 C 180.160 132.471,179.373 132.975,177.814 135.100 M215.728 134.700 C 215.593 135.085,215.236 136.013,214.936 136.761 C 214.635 137.510,214.478 138.211,214.585 138.319 C 214.693 138.426,214.872 138.264,214.984 137.957 C 215.915 135.397,216.334 134.000,216.170 134.000 C 216.063 134.000,215.864 134.315,215.728 134.700 M175.521 138.700 C 174.482 139.905,171.521 144.454,171.675 144.608 C 171.756 144.689,172.852 143.235,174.111 141.378 C 176.319 138.120,176.787 137.231,175.521 138.700 M167.897 149.907 C 166.191 152.448,164.854 154.587,164.927 154.660 C 165.000 154.733,166.461 152.714,168.174 150.174 C 169.888 147.634,171.224 145.495,171.145 145.421 C 171.065 145.347,169.604 147.366,167.897 149.907 M211.077 147.077 C 210.700 148.093,210.458 148.991,210.538 149.072 C 210.619 149.152,211.000 148.393,211.385 147.385 C 211.770 146.376,212.012 145.479,211.923 145.390 C 211.835 145.301,211.454 146.060,211.077 147.077 M161.386 159.619 C 160.571 160.729,159.989 161.722,160.091 161.825 C 160.194 161.928,160.938 161.019,161.743 159.806 C 163.577 157.045,163.359 156.931,161.386 159.619 M305.600 158.000 C 304.805 158.514,305.804 158.514,307.000 158.000 L 307.800 157.656 307.000 157.634 C 306.560 157.622,305.930 157.787,305.600 158.000 M300.400 158.806 C 299.978 159.082,300.215 159.123,301.200 158.942 C 302.925 158.625,303.251 158.398,301.967 158.406 C 301.435 158.409,300.730 158.589,300.400 158.806 M295.000 159.620 C 294.461 159.865,294.854 159.905,296.200 159.741 C 297.300 159.607,298.275 159.431,298.367 159.349 C 298.717 159.036,295.761 159.274,295.000 159.620 M308.744 159.900 C 307.475 161.432,307.019 162.142,307.481 161.865 C 307.993 161.558,309.769 159.200,309.489 159.200 C 309.398 159.200,309.063 159.515,308.744 159.900 M290.000 160.400 C 288.596 160.850,290.063 160.865,292.200 160.423 L 293.800 160.092 292.400 160.086 C 291.630 160.083,290.550 160.224,290.000 160.400 M285.600 161.200 L 284.200 161.495 285.600 161.507 C 286.370 161.515,287.450 161.376,288.000 161.200 L 289.000 160.880 288.000 160.893 C 287.450 160.900,286.370 161.038,285.600 161.200 M281.400 162.000 L 280.600 162.344 281.400 162.344 C 281.840 162.344,282.560 162.189,283.000 162.000 L 283.800 161.656 283.000 161.656 C 282.560 161.656,281.840 161.811,281.400 162.000 M276.200 162.800 L 275.400 163.144 276.200 163.144 C 276.640 163.144,277.360 162.989,277.800 162.800 L 278.600 162.456 277.800 162.456 C 277.360 162.456,276.640 162.611,276.200 162.800 M304.898 164.942 C 303.854 166.340,300.769 170.417,298.043 174.001 C 295.316 177.586,293.275 180.401,293.508 180.257 C 293.740 180.113,296.061 177.178,298.665 173.735 C 306.218 163.747,307.208 162.400,306.996 162.400 C 306.886 162.400,305.942 163.544,304.898 164.942 M271.000 163.619 C 270.442 163.871,270.685 163.907,271.800 163.738 C 272.680 163.604,273.475 163.428,273.567 163.347 C 273.910 163.044,271.768 163.271,271.000 163.619 M265.600 164.413 C 264.954 164.629,265.380 164.666,266.800 164.519 C 268.010 164.394,269.075 164.226,269.167 164.146 C 269.487 163.865,266.591 164.083,265.600 164.413 M156.072 167.447 C 155.121 168.893,154.401 170.130,154.472 170.194 C 154.542 170.258,155.443 169.071,156.474 167.556 C 157.505 166.040,158.225 164.804,158.074 164.808 C 157.923 164.813,157.022 166.000,156.072 167.447 M261.800 164.999 C 261.580 165.073,260.707 165.251,259.859 165.393 C 259.012 165.535,258.391 165.724,258.479 165.813 C 258.568 165.901,259.981 165.729,261.620 165.430 C 263.259 165.131,264.060 164.881,263.400 164.875 C 262.740 164.868,262.020 164.924,261.800 164.999 M254.282 166.251 C 254.144 166.389,252.989 166.649,251.715 166.828 L 249.400 167.153 251.600 166.974 C 252.810 166.876,254.790 166.642,256.000 166.454 L 258.200 166.113 256.367 166.056 C 255.358 166.025,254.420 166.113,254.282 166.251 M245.600 167.646 C 241.059 168.365,237.435 169.129,238.400 169.164 C 239.308 169.197,243.711 168.478,247.800 167.628 C 249.907 167.191,248.399 167.203,245.600 167.646 M202.220 170.509 C 201.817 171.659,201.333 172.771,201.144 172.980 C 200.171 174.055,200.768 175.467,202.100 175.240 C 203.374 175.024,203.378 175.016,202.300 174.883 C 201.197 174.746,200.815 173.798,201.534 172.980 C 202.001 172.448,203.321 168.787,203.118 168.585 C 203.026 168.493,202.622 169.359,202.220 170.509 M234.800 169.600 C 234.036 170.094,234.858 170.094,236.400 169.600 L 237.400 169.280 236.400 169.246 C 235.850 169.227,235.130 169.387,234.800 169.600 M229.815 170.376 C 229.676 170.601,230.191 170.659,231.091 170.520 C 233.100 170.210,233.261 170.000,231.490 170.000 C 230.697 170.000,229.943 170.169,229.815 170.376 M150.800 175.305 C 147.791 179.804,146.367 182.147,147.094 181.400 C 147.868 180.606,154.321 170.800,154.064 170.810 C 153.919 170.815,152.450 172.838,150.800 175.305 M224.600 171.203 C 224.085 171.426,224.513 171.467,225.800 171.318 C 226.900 171.191,227.875 171.023,227.967 170.944 C 228.314 170.645,225.364 170.872,224.600 171.203 M219.400 171.990 C 218.917 172.192,219.551 172.238,221.000 172.107 C 222.320 171.987,223.475 171.824,223.567 171.745 C 223.907 171.449,220.170 171.669,219.400 171.990 M214.400 172.821 C 213.752 173.042,214.245 173.080,215.800 172.931 C 217.120 172.804,218.275 172.632,218.367 172.550 C 218.690 172.259,215.386 172.484,214.400 172.821 M210.400 173.600 L 209.400 173.920 210.400 173.920 C 210.950 173.920,211.850 173.776,212.400 173.600 L 213.400 173.280 212.400 173.280 C 211.850 173.280,210.950 173.424,210.400 173.600 M206.000 174.418 C 205.562 174.715,205.724 174.752,206.600 174.556 C 208.071 174.227,208.390 173.998,207.367 174.006 C 206.945 174.009,206.330 174.195,206.000 174.418 M291.827 182.200 C 291.240 182.970,290.903 183.598,291.080 183.595 C 291.256 183.592,291.807 182.962,292.304 182.195 C 293.468 180.397,293.200 180.400,291.827 182.200 M144.998 184.002 C 144.598 184.444,144.366 184.899,144.482 185.015 C 144.597 185.130,144.990 184.769,145.355 184.212 C 146.152 182.996,145.993 182.902,144.998 184.002 M143.269 186.439 C 142.510 187.654,142.966 187.816,143.755 186.612 C 144.120 186.056,144.278 185.600,144.105 185.600 C 143.933 185.600,143.557 185.978,143.269 186.439 M286.193 189.700 C 285.173 191.075,284.906 191.570,285.599 190.800 C 287.131 189.097,288.529 187.200,288.251 187.200 C 288.138 187.200,287.212 188.325,286.193 189.700 M140.069 191.239 C 139.328 192.424,139.657 192.513,140.519 191.361 C 140.914 190.832,141.092 190.400,140.915 190.400 C 140.738 190.400,140.357 190.778,140.069 191.239 M283.007 193.826 C 282.409 194.611,281.982 195.316,282.060 195.393 C 282.137 195.470,282.707 194.828,283.326 193.967 C 284.734 192.008,284.479 191.896,283.007 193.826 M138.469 193.639 C 137.710 194.854,138.166 195.016,138.955 193.812 C 139.320 193.256,139.478 192.800,139.305 192.800 C 139.133 192.800,138.757 193.178,138.469 193.639 M134.297 199.878 C 132.591 202.435,131.252 204.585,131.322 204.655 C 131.392 204.725,132.915 202.626,134.708 199.991 C 136.500 197.356,137.839 195.206,137.683 195.214 C 137.527 195.222,136.004 197.321,134.297 199.878 M279.065 199.000 C 277.817 200.650,276.932 201.993,277.098 201.985 C 277.373 201.971,277.990 201.172,280.714 197.300 C 282.417 194.880,281.348 195.982,279.065 199.000 M273.868 205.819 C 273.262 206.578,272.909 207.190,273.083 207.178 C 273.490 207.149,275.346 204.813,275.132 204.599 C 275.043 204.510,274.474 205.059,273.868 205.819 M270.081 210.900 C 266.333 215.702,263.135 220.069,263.269 220.202 C 263.348 220.281,265.029 218.183,267.006 215.540 C 268.983 212.898,270.930 210.300,271.333 209.768 C 271.737 209.235,271.989 208.800,271.893 208.800 C 271.798 208.800,270.982 209.745,270.081 210.900 M126.869 210.839 C 126.110 212.054,126.566 212.216,127.355 211.012 C 127.720 210.456,127.878 210.000,127.705 210.000 C 127.533 210.000,127.157 210.378,126.869 210.839 M122.472 217.447 C 121.521 218.893,120.807 220.141,120.885 220.219 C 120.963 220.296,121.871 219.109,122.902 217.580 C 123.933 216.051,124.647 214.804,124.488 214.808 C 124.330 214.813,123.422 216.000,122.472 217.447 M119.531 221.903 C 119.163 222.506,118.457 223.630,117.963 224.400 C 116.732 226.315,117.534 225.457,119.365 222.900 C 120.192 221.745,120.718 220.801,120.534 220.803 C 120.350 220.804,119.899 221.299,119.531 221.903 M261.483 222.200 C 260.869 222.970,260.489 223.600,260.639 223.600 C 260.936 223.600,261.774 222.612,262.421 221.500 C 263.057 220.407,262.703 220.671,261.483 222.200 M258.681 225.839 C 258.286 226.368,258.108 226.800,258.285 226.800 C 258.634 226.800,259.738 225.201,259.528 225.000 C 259.457 224.933,259.077 225.311,258.681 225.839 M115.410 228.039 C 114.604 229.161,114.020 230.153,114.112 230.245 C 114.204 230.337,114.938 229.419,115.743 228.206 C 117.584 225.434,117.362 225.323,115.410 228.039 M257.144 227.900 C 255.875 229.432,255.419 230.142,255.881 229.865 C 256.393 229.558,258.169 227.200,257.889 227.200 C 257.798 227.200,257.463 227.515,257.144 227.900 M190.200 231.056 C 188.440 231.371,185.861 231.787,184.468 231.980 C 183.076 232.173,181.822 232.444,181.683 232.583 C 181.399 232.868,183.463 232.621,188.200 231.804 C 194.716 230.680,194.399 230.696,194.406 231.482 C 194.411 232.074,194.477 232.098,194.780 231.619 C 195.628 230.278,194.982 230.198,190.200 231.056 M254.175 231.868 C 253.559 232.676,253.259 233.211,253.509 233.056 C 254.021 232.740,255.753 230.400,255.475 230.400 C 255.376 230.400,254.791 231.061,254.175 231.868 M178.700 233.082 C 179.195 233.178,180.005 233.178,180.500 233.082 C 180.995 232.987,180.590 232.909,179.600 232.909 C 178.610 232.909,178.205 232.987,178.700 233.082 M172.715 233.819 C 172.594 233.939,171.169 234.279,169.548 234.575 C 167.927 234.871,166.980 235.133,167.445 235.157 C 167.910 235.181,169.260 234.996,170.445 234.746 C 171.630 234.496,173.500 234.162,174.600 234.002 L 176.600 233.713 174.767 233.656 C 173.758 233.625,172.835 233.698,172.715 233.819 M251.534 235.273 C 250.800 236.193,249.930 237.349,249.600 237.842 C 249.270 238.335,247.848 240.238,246.440 242.069 C 245.032 243.901,243.704 245.670,243.490 246.000 C 242.926 246.869,244.842 244.761,245.877 243.375 C 248.482 239.886,249.495 238.535,250.400 237.348 C 250.950 236.627,251.817 235.488,252.327 234.818 C 253.731 232.975,253.059 233.359,251.534 235.273 M163.600 235.600 C 162.243 235.886,162.237 235.895,163.400 235.907 C 164.060 235.915,165.050 235.776,165.600 235.600 C 166.912 235.180,165.596 235.180,163.600 235.600 M109.669 236.439 C 108.910 237.654,109.366 237.816,110.155 236.612 C 110.520 236.056,110.678 235.600,110.505 235.600 C 110.333 235.600,109.957 235.978,109.669 236.439 M158.800 236.400 L 157.800 236.720 158.800 236.732 C 159.350 236.738,160.160 236.589,160.600 236.400 L 161.400 236.056 160.600 236.068 C 160.160 236.074,159.350 236.224,158.800 236.400 M153.800 237.200 C 153.296 237.417,153.222 237.544,153.600 237.544 C 153.930 237.544,154.560 237.389,155.000 237.200 C 155.504 236.983,155.578 236.856,155.200 236.856 C 154.870 236.856,154.240 237.011,153.800 237.200 M148.600 238.000 L 147.800 238.344 148.600 238.344 C 149.040 238.344,149.760 238.189,150.200 238.000 L 151.000 237.656 150.200 237.656 C 149.760 237.656,149.040 237.811,148.600 238.000 M144.000 238.820 C 143.326 239.049,143.651 239.084,145.000 238.928 C 146.100 238.801,147.075 238.631,147.167 238.549 C 147.482 238.268,144.999 238.480,144.000 238.820 M139.600 239.600 L 138.200 239.895 139.600 239.919 C 140.370 239.933,141.360 239.789,141.800 239.600 L 142.600 239.256 141.800 239.281 C 141.360 239.294,140.370 239.438,139.600 239.600 M135.000 240.400 L 133.800 240.705 135.000 240.747 C 135.660 240.769,136.470 240.613,136.800 240.400 C 137.543 239.920,136.887 239.920,135.000 240.400 M106.469 241.239 C 105.728 242.424,106.057 242.513,106.919 241.361 C 107.314 240.832,107.492 240.400,107.315 240.400 C 107.138 240.400,106.757 240.778,106.469 241.239 M130.200 241.200 L 129.000 241.505 130.276 241.553 C 130.978 241.579,131.664 241.420,131.800 241.200 C 132.074 240.757,131.940 240.757,130.200 241.200 M190.580 241.443 C 190.449 241.859,190.175 242.513,189.971 242.895 C 189.767 243.277,189.610 243.907,189.622 244.295 C 189.634 244.683,190.000 244.121,190.436 243.047 C 190.872 241.973,191.136 241.003,191.023 240.890 C 190.911 240.778,190.711 241.026,190.580 241.443 M125.200 242.000 L 124.200 242.320 125.276 242.360 C 125.868 242.382,126.464 242.220,126.600 242.000 C 126.881 241.545,126.620 241.545,125.200 242.000 M120.400 242.800 C 119.576 243.064,119.541 243.126,120.200 243.154 C 120.640 243.173,121.270 243.013,121.600 242.800 C 122.301 242.347,121.814 242.347,120.400 242.800 M104.820 243.762 C 103.926 245.432,106.144 246.271,108.600 245.192 C 109.111 244.968,108.569 244.925,107.100 245.075 C 104.607 245.330,104.190 244.937,105.462 243.531 C 105.826 243.129,105.947 242.800,105.730 242.800 C 105.513 242.800,105.104 243.233,104.820 243.762 M115.400 243.600 L 114.200 243.905 115.400 243.905 C 116.060 243.905,117.140 243.768,117.800 243.600 L 119.000 243.295 117.800 243.295 C 117.140 243.295,116.060 243.432,115.400 243.600 M111.200 244.400 L 109.400 244.680 111.000 244.712 C 111.880 244.729,112.960 244.589,113.400 244.400 C 114.327 244.002,113.761 244.002,111.200 244.400 M240.227 250.200 C 239.640 250.970,239.303 251.598,239.480 251.595 C 239.656 251.592,240.207 250.962,240.704 250.195 C 241.868 248.397,241.600 248.400,240.227 250.200 M187.050 250.791 C 186.147 253.047,186.287 253.383,187.237 251.242 C 187.666 250.275,187.945 249.412,187.858 249.325 C 187.771 249.238,187.408 249.898,187.050 250.791 M238.344 252.700 C 237.052 254.260,236.719 254.800,237.051 254.795 C 237.243 254.792,237.807 254.162,238.304 253.395 C 239.272 251.901,239.292 251.556,238.344 252.700 M185.750 253.900 C 184.967 256.336,184.571 257.431,183.635 259.752 C 183.379 260.385,183.243 260.976,183.331 261.065 C 183.420 261.153,183.715 260.635,183.987 259.913 C 184.258 259.191,184.626 258.240,184.804 257.800 C 185.674 255.647,186.395 253.200,186.160 253.200 C 186.058 253.200,185.874 253.515,185.750 253.900 M235.944 255.900 C 234.793 257.289,234.306 258.000,234.504 258.000 C 234.614 258.000,235.186 257.370,235.773 256.600 C 236.863 255.171,236.995 254.632,235.944 255.900 M232.181 260.824 C 231.155 262.158,230.380 263.308,230.458 263.379 C 230.536 263.451,231.459 262.360,232.509 260.955 C 233.560 259.550,234.335 258.400,234.233 258.400 C 234.130 258.400,233.207 259.491,232.181 260.824 M182.465 262.617 C 182.209 263.178,182.007 263.854,182.016 264.119 C 182.024 264.383,182.297 263.988,182.622 263.239 C 183.305 261.665,183.161 261.090,182.465 262.617 M228.344 265.900 C 227.075 267.432,226.619 268.142,227.081 267.865 C 227.593 267.558,229.369 265.200,229.089 265.200 C 228.998 265.200,228.663 265.515,228.344 265.900 M224.018 271.576 C 222.688 273.323,221.600 274.878,221.600 275.031 C 221.600 275.185,222.148 274.610,222.817 273.755 C 223.486 272.900,224.254 271.930,224.523 271.600 C 225.587 270.294,226.843 268.400,226.645 268.400 C 226.530 268.400,225.348 269.829,224.018 271.576 M178.700 272.511 C 177.738 274.844,177.832 275.410,178.820 273.232 C 179.261 272.260,179.572 271.318,179.511 271.139 C 179.450 270.960,179.085 271.578,178.700 272.511 M214.909 283.600 C 211.572 288.000,208.967 291.596,209.120 291.590 C 209.365 291.582,220.078 277.551,220.920 276.137 C 221.878 274.528,220.373 276.396,214.909 283.600 M172.667 287.867 C 172.520 288.013,172.411 288.508,172.425 288.967 C 172.449 289.733,172.482 289.723,172.834 288.842 C 173.226 287.863,173.144 287.389,172.667 287.867 M169.872 295.419 C 169.502 296.193,169.213 297.046,169.228 297.314 C 169.244 297.581,169.608 297.009,170.037 296.042 C 170.971 293.937,170.831 293.408,169.872 295.419 M205.544 295.900 C 204.252 297.460,203.919 298.000,204.251 297.995 C 204.443 297.992,205.007 297.362,205.504 296.595 C 206.472 295.101,206.492 294.756,205.544 295.900 M168.555 298.700 C 168.434 299.085,168.170 299.813,167.967 300.319 C 167.765 300.824,167.611 301.454,167.625 301.719 C 167.639 301.983,167.838 301.750,168.066 301.200 C 168.697 299.680,169.167 298.000,168.960 298.000 C 168.858 298.000,168.676 298.315,168.555 298.700 M201.948 300.686 C 199.587 303.774,198.889 304.885,200.322 303.274 C 201.718 301.704,204.126 298.400,203.873 298.400 C 203.776 298.400,202.909 299.429,201.948 300.686 M165.653 306.453 C 165.180 307.593,164.858 308.592,164.939 308.672 C 165.020 308.753,165.473 307.886,165.947 306.747 C 166.420 305.607,166.742 304.608,166.661 304.528 C 166.580 304.447,166.127 305.314,165.653 306.453 M197.560 306.500 C 195.876 308.532,195.065 309.912,196.561 308.200 C 197.884 306.685,199.299 304.800,199.112 304.800 C 199.034 304.800,198.335 305.565,197.560 306.500 M190.744 315.500 C 189.475 317.032,189.019 317.742,189.481 317.465 C 189.993 317.158,191.769 314.800,191.489 314.800 C 191.398 314.800,191.063 315.115,190.744 315.500 M161.479 317.250 C 160.548 319.687,160.639 320.193,161.620 318.032 C 162.061 317.060,162.362 316.086,162.289 315.868 C 162.217 315.651,161.852 316.272,161.479 317.250 M188.093 318.800 C 187.818 319.240,187.731 319.600,187.900 319.600 C 188.069 319.600,188.432 319.240,188.707 318.800 C 188.982 318.360,189.069 318.000,188.900 318.000 C 188.731 318.000,188.368 318.360,188.093 318.800 M185.139 322.900 C 182.947 325.644,181.544 327.600,181.767 327.600 C 181.881 327.600,182.745 326.585,183.687 325.344 C 184.629 324.103,185.730 322.663,186.133 322.144 C 186.537 321.625,186.783 321.200,186.682 321.200 C 186.580 321.200,185.885 321.965,185.139 322.900 M157.472 327.819 C 157.102 328.593,156.804 329.446,156.809 329.714 C 156.814 329.981,157.177 329.408,157.616 328.440 C 158.567 326.344,158.439 325.791,157.472 327.819 M178.634 331.400 C 177.191 333.270,176.143 334.796,176.305 334.792 C 176.467 334.787,177.500 333.580,178.600 332.108 C 181.555 328.155,181.662 328.000,181.452 328.000 C 181.346 328.000,180.078 329.530,178.634 331.400 M173.775 337.868 C 173.159 338.676,172.859 339.211,173.109 339.056 C 173.621 338.740,175.353 336.400,175.075 336.400 C 174.976 336.400,174.391 337.061,173.775 337.868 M152.658 340.327 C 151.684 342.828,151.383 343.593,150.850 344.919 C 150.602 345.534,150.409 346.254,150.421 346.519 C 150.432 346.783,150.719 346.280,151.057 345.400 C 151.975 343.018,152.235 342.366,153.015 340.496 C 153.405 339.559,153.649 338.716,153.556 338.623 C 153.463 338.530,153.059 339.297,152.658 340.327 M171.944 340.300 C 170.793 341.689,170.306 342.400,170.504 342.400 C 170.614 342.400,171.186 341.770,171.773 341.000 C 172.863 339.571,172.995 339.032,171.944 340.300 M169.516 343.500 C 168.068 345.165,158.707 357.704,159.087 357.470 C 159.426 357.260,163.138 352.483,169.733 343.769 C 170.578 342.653,170.420 342.459,169.516 343.500 M148.865 350.217 C 148.195 351.688,148.323 352.002,149.047 350.665 C 149.386 350.040,149.588 349.454,149.496 349.363 C 149.405 349.271,149.121 349.656,148.865 350.217 M155.868 361.419 C 155.262 362.178,154.909 362.790,155.083 362.778 C 155.490 362.749,157.346 360.413,157.132 360.199 C 157.043 360.110,156.474 360.659,155.868 361.419 M144.258 362.104 C 143.328 364.540,143.480 365.004,144.436 362.647 C 144.872 361.573,145.158 360.624,145.072 360.538 C 144.986 360.452,144.620 361.157,144.258 362.104 M150.000 369.200 C 148.006 371.840,146.464 374.000,146.573 374.000 C 146.682 374.000,148.172 372.162,149.885 369.915 C 153.951 364.583,154.082 364.400,153.835 364.400 C 153.719 364.400,151.994 366.560,150.000 369.200 M139.864 373.507 C 139.279 374.999,138.809 376.395,138.821 376.610 C 138.832 376.824,139.379 375.672,140.036 374.049 C 140.694 372.426,141.163 371.030,141.080 370.947 C 140.997 370.863,140.449 372.016,139.864 373.507 M143.468 377.819 C 142.862 378.578,142.509 379.190,142.683 379.178 C 143.090 379.149,144.946 376.813,144.732 376.599 C 144.643 376.510,144.074 377.059,143.468 377.819 M141.027 381.000 C 140.440 381.770,140.103 382.398,140.280 382.395 C 140.456 382.392,141.007 381.762,141.504 380.995 C 142.668 379.197,142.400 379.200,141.027 381.000 M139.144 383.500 C 137.875 385.032,137.419 385.742,137.881 385.465 C 138.393 385.158,140.169 382.800,139.889 382.800 C 139.798 382.800,139.463 383.115,139.144 383.500 M135.259 385.428 C 134.016 388.676,134.111 389.946,135.493 388.564 C 136.029 388.028,136.041 387.873,135.572 387.582 C 135.100 387.291,135.122 386.945,135.711 385.356 C 136.094 384.321,136.343 383.409,136.263 383.329 C 136.183 383.249,135.731 384.194,135.259 385.428 " stroke="none" fill="#3299f0" fill-rule="evenodd"></path></g></svg>